G04 #@! TF.GenerationSoftware,KiCad,Pcbnew,5.0.2-bee76a0~70~ubuntu18.04.1*
G04 #@! TF.CreationDate,2019-08-08T23:41:47+02:00*
G04 #@! TF.ProjectId,adapterBoard,61646170-7465-4724-926f-6172642e6b69,rev?*
G04 #@! TF.SameCoordinates,Original*
G04 #@! TF.FileFunction,Paste,Top*
G04 #@! TF.FilePolarity,Positive*
%FSLAX46Y46*%
G04 Gerber Fmt 4.6, Leading zero omitted, Abs format (unit mm)*
G04 Created by KiCad (PCBNEW 5.0.2-bee76a0~70~ubuntu18.04.1) date Do 08 Aug 2019 23:41:47 CEST*
%MOMM*%
%LPD*%
G01*
G04 APERTURE LIST*
%ADD10R,0.500000X0.500000*%
%ADD11C,0.100000*%
%ADD12C,2.500000*%
%ADD13C,0.875000*%
%ADD14C,1.250000*%
%ADD15R,2.500000X3.300000*%
%ADD16R,1.200000X3.900000*%
%ADD17R,0.600000X1.550000*%
%ADD18R,1.060000X0.650000*%
%ADD19R,0.650000X0.400000*%
%ADD20R,0.650000X1.050000*%
G04 APERTURE END LIST*
D10*
G04 #@! TO.C,D5*
X154500000Y-69900000D03*
X154500000Y-72100000D03*
G04 #@! TD*
D11*
G04 #@! TO.C,C5*
G36*
X177674504Y-78951204D02*
X177698773Y-78954804D01*
X177722571Y-78960765D01*
X177745671Y-78969030D01*
X177767849Y-78979520D01*
X177788893Y-78992133D01*
X177808598Y-79006747D01*
X177826777Y-79023223D01*
X177843253Y-79041402D01*
X177857867Y-79061107D01*
X177870480Y-79082151D01*
X177880970Y-79104329D01*
X177889235Y-79127429D01*
X177895196Y-79151227D01*
X177898796Y-79175496D01*
X177900000Y-79200000D01*
X177900000Y-81200000D01*
X177898796Y-81224504D01*
X177895196Y-81248773D01*
X177889235Y-81272571D01*
X177880970Y-81295671D01*
X177870480Y-81317849D01*
X177857867Y-81338893D01*
X177843253Y-81358598D01*
X177826777Y-81376777D01*
X177808598Y-81393253D01*
X177788893Y-81407867D01*
X177767849Y-81420480D01*
X177745671Y-81430970D01*
X177722571Y-81439235D01*
X177698773Y-81445196D01*
X177674504Y-81448796D01*
X177650000Y-81450000D01*
X173750000Y-81450000D01*
X173725496Y-81448796D01*
X173701227Y-81445196D01*
X173677429Y-81439235D01*
X173654329Y-81430970D01*
X173632151Y-81420480D01*
X173611107Y-81407867D01*
X173591402Y-81393253D01*
X173573223Y-81376777D01*
X173556747Y-81358598D01*
X173542133Y-81338893D01*
X173529520Y-81317849D01*
X173519030Y-81295671D01*
X173510765Y-81272571D01*
X173504804Y-81248773D01*
X173501204Y-81224504D01*
X173500000Y-81200000D01*
X173500000Y-79200000D01*
X173501204Y-79175496D01*
X173504804Y-79151227D01*
X173510765Y-79127429D01*
X173519030Y-79104329D01*
X173529520Y-79082151D01*
X173542133Y-79061107D01*
X173556747Y-79041402D01*
X173573223Y-79023223D01*
X173591402Y-79006747D01*
X173611107Y-78992133D01*
X173632151Y-78979520D01*
X173654329Y-78969030D01*
X173677429Y-78960765D01*
X173701227Y-78954804D01*
X173725496Y-78951204D01*
X173750000Y-78950000D01*
X177650000Y-78950000D01*
X177674504Y-78951204D01*
X177674504Y-78951204D01*
G37*
D12*
X175700000Y-80200000D03*
D11*
G36*
X169274504Y-78951204D02*
X169298773Y-78954804D01*
X169322571Y-78960765D01*
X169345671Y-78969030D01*
X169367849Y-78979520D01*
X169388893Y-78992133D01*
X169408598Y-79006747D01*
X169426777Y-79023223D01*
X169443253Y-79041402D01*
X169457867Y-79061107D01*
X169470480Y-79082151D01*
X169480970Y-79104329D01*
X169489235Y-79127429D01*
X169495196Y-79151227D01*
X169498796Y-79175496D01*
X169500000Y-79200000D01*
X169500000Y-81200000D01*
X169498796Y-81224504D01*
X169495196Y-81248773D01*
X169489235Y-81272571D01*
X169480970Y-81295671D01*
X169470480Y-81317849D01*
X169457867Y-81338893D01*
X169443253Y-81358598D01*
X169426777Y-81376777D01*
X169408598Y-81393253D01*
X169388893Y-81407867D01*
X169367849Y-81420480D01*
X169345671Y-81430970D01*
X169322571Y-81439235D01*
X169298773Y-81445196D01*
X169274504Y-81448796D01*
X169250000Y-81450000D01*
X165350000Y-81450000D01*
X165325496Y-81448796D01*
X165301227Y-81445196D01*
X165277429Y-81439235D01*
X165254329Y-81430970D01*
X165232151Y-81420480D01*
X165211107Y-81407867D01*
X165191402Y-81393253D01*
X165173223Y-81376777D01*
X165156747Y-81358598D01*
X165142133Y-81338893D01*
X165129520Y-81317849D01*
X165119030Y-81295671D01*
X165110765Y-81272571D01*
X165104804Y-81248773D01*
X165101204Y-81224504D01*
X165100000Y-81200000D01*
X165100000Y-79200000D01*
X165101204Y-79175496D01*
X165104804Y-79151227D01*
X165110765Y-79127429D01*
X165119030Y-79104329D01*
X165129520Y-79082151D01*
X165142133Y-79061107D01*
X165156747Y-79041402D01*
X165173223Y-79023223D01*
X165191402Y-79006747D01*
X165211107Y-78992133D01*
X165232151Y-78979520D01*
X165254329Y-78969030D01*
X165277429Y-78960765D01*
X165301227Y-78954804D01*
X165325496Y-78951204D01*
X165350000Y-78950000D01*
X169250000Y-78950000D01*
X169274504Y-78951204D01*
X169274504Y-78951204D01*
G37*
D12*
X167300000Y-80200000D03*
G04 #@! TD*
D11*
G04 #@! TO.C,C2*
G36*
X184790191Y-72026053D02*
X184811426Y-72029203D01*
X184832250Y-72034419D01*
X184852462Y-72041651D01*
X184871868Y-72050830D01*
X184890281Y-72061866D01*
X184907524Y-72074654D01*
X184923430Y-72089070D01*
X184937846Y-72104976D01*
X184950634Y-72122219D01*
X184961670Y-72140632D01*
X184970849Y-72160038D01*
X184978081Y-72180250D01*
X184983297Y-72201074D01*
X184986447Y-72222309D01*
X184987500Y-72243750D01*
X184987500Y-72756250D01*
X184986447Y-72777691D01*
X184983297Y-72798926D01*
X184978081Y-72819750D01*
X184970849Y-72839962D01*
X184961670Y-72859368D01*
X184950634Y-72877781D01*
X184937846Y-72895024D01*
X184923430Y-72910930D01*
X184907524Y-72925346D01*
X184890281Y-72938134D01*
X184871868Y-72949170D01*
X184852462Y-72958349D01*
X184832250Y-72965581D01*
X184811426Y-72970797D01*
X184790191Y-72973947D01*
X184768750Y-72975000D01*
X184331250Y-72975000D01*
X184309809Y-72973947D01*
X184288574Y-72970797D01*
X184267750Y-72965581D01*
X184247538Y-72958349D01*
X184228132Y-72949170D01*
X184209719Y-72938134D01*
X184192476Y-72925346D01*
X184176570Y-72910930D01*
X184162154Y-72895024D01*
X184149366Y-72877781D01*
X184138330Y-72859368D01*
X184129151Y-72839962D01*
X184121919Y-72819750D01*
X184116703Y-72798926D01*
X184113553Y-72777691D01*
X184112500Y-72756250D01*
X184112500Y-72243750D01*
X184113553Y-72222309D01*
X184116703Y-72201074D01*
X184121919Y-72180250D01*
X184129151Y-72160038D01*
X184138330Y-72140632D01*
X184149366Y-72122219D01*
X184162154Y-72104976D01*
X184176570Y-72089070D01*
X184192476Y-72074654D01*
X184209719Y-72061866D01*
X184228132Y-72050830D01*
X184247538Y-72041651D01*
X184267750Y-72034419D01*
X184288574Y-72029203D01*
X184309809Y-72026053D01*
X184331250Y-72025000D01*
X184768750Y-72025000D01*
X184790191Y-72026053D01*
X184790191Y-72026053D01*
G37*
D13*
X184550000Y-72500000D03*
D11*
G36*
X186365191Y-72026053D02*
X186386426Y-72029203D01*
X186407250Y-72034419D01*
X186427462Y-72041651D01*
X186446868Y-72050830D01*
X186465281Y-72061866D01*
X186482524Y-72074654D01*
X186498430Y-72089070D01*
X186512846Y-72104976D01*
X186525634Y-72122219D01*
X186536670Y-72140632D01*
X186545849Y-72160038D01*
X186553081Y-72180250D01*
X186558297Y-72201074D01*
X186561447Y-72222309D01*
X186562500Y-72243750D01*
X186562500Y-72756250D01*
X186561447Y-72777691D01*
X186558297Y-72798926D01*
X186553081Y-72819750D01*
X186545849Y-72839962D01*
X186536670Y-72859368D01*
X186525634Y-72877781D01*
X186512846Y-72895024D01*
X186498430Y-72910930D01*
X186482524Y-72925346D01*
X186465281Y-72938134D01*
X186446868Y-72949170D01*
X186427462Y-72958349D01*
X186407250Y-72965581D01*
X186386426Y-72970797D01*
X186365191Y-72973947D01*
X186343750Y-72975000D01*
X185906250Y-72975000D01*
X185884809Y-72973947D01*
X185863574Y-72970797D01*
X185842750Y-72965581D01*
X185822538Y-72958349D01*
X185803132Y-72949170D01*
X185784719Y-72938134D01*
X185767476Y-72925346D01*
X185751570Y-72910930D01*
X185737154Y-72895024D01*
X185724366Y-72877781D01*
X185713330Y-72859368D01*
X185704151Y-72839962D01*
X185696919Y-72819750D01*
X185691703Y-72798926D01*
X185688553Y-72777691D01*
X185687500Y-72756250D01*
X185687500Y-72243750D01*
X185688553Y-72222309D01*
X185691703Y-72201074D01*
X185696919Y-72180250D01*
X185704151Y-72160038D01*
X185713330Y-72140632D01*
X185724366Y-72122219D01*
X185737154Y-72104976D01*
X185751570Y-72089070D01*
X185767476Y-72074654D01*
X185784719Y-72061866D01*
X185803132Y-72050830D01*
X185822538Y-72041651D01*
X185842750Y-72034419D01*
X185863574Y-72029203D01*
X185884809Y-72026053D01*
X185906250Y-72025000D01*
X186343750Y-72025000D01*
X186365191Y-72026053D01*
X186365191Y-72026053D01*
G37*
D13*
X186125000Y-72500000D03*
G04 #@! TD*
D11*
G04 #@! TO.C,C3*
G36*
X137740191Y-54026053D02*
X137761426Y-54029203D01*
X137782250Y-54034419D01*
X137802462Y-54041651D01*
X137821868Y-54050830D01*
X137840281Y-54061866D01*
X137857524Y-54074654D01*
X137873430Y-54089070D01*
X137887846Y-54104976D01*
X137900634Y-54122219D01*
X137911670Y-54140632D01*
X137920849Y-54160038D01*
X137928081Y-54180250D01*
X137933297Y-54201074D01*
X137936447Y-54222309D01*
X137937500Y-54243750D01*
X137937500Y-54756250D01*
X137936447Y-54777691D01*
X137933297Y-54798926D01*
X137928081Y-54819750D01*
X137920849Y-54839962D01*
X137911670Y-54859368D01*
X137900634Y-54877781D01*
X137887846Y-54895024D01*
X137873430Y-54910930D01*
X137857524Y-54925346D01*
X137840281Y-54938134D01*
X137821868Y-54949170D01*
X137802462Y-54958349D01*
X137782250Y-54965581D01*
X137761426Y-54970797D01*
X137740191Y-54973947D01*
X137718750Y-54975000D01*
X137281250Y-54975000D01*
X137259809Y-54973947D01*
X137238574Y-54970797D01*
X137217750Y-54965581D01*
X137197538Y-54958349D01*
X137178132Y-54949170D01*
X137159719Y-54938134D01*
X137142476Y-54925346D01*
X137126570Y-54910930D01*
X137112154Y-54895024D01*
X137099366Y-54877781D01*
X137088330Y-54859368D01*
X137079151Y-54839962D01*
X137071919Y-54819750D01*
X137066703Y-54798926D01*
X137063553Y-54777691D01*
X137062500Y-54756250D01*
X137062500Y-54243750D01*
X137063553Y-54222309D01*
X137066703Y-54201074D01*
X137071919Y-54180250D01*
X137079151Y-54160038D01*
X137088330Y-54140632D01*
X137099366Y-54122219D01*
X137112154Y-54104976D01*
X137126570Y-54089070D01*
X137142476Y-54074654D01*
X137159719Y-54061866D01*
X137178132Y-54050830D01*
X137197538Y-54041651D01*
X137217750Y-54034419D01*
X137238574Y-54029203D01*
X137259809Y-54026053D01*
X137281250Y-54025000D01*
X137718750Y-54025000D01*
X137740191Y-54026053D01*
X137740191Y-54026053D01*
G37*
D13*
X137500000Y-54500000D03*
D11*
G36*
X136165191Y-54026053D02*
X136186426Y-54029203D01*
X136207250Y-54034419D01*
X136227462Y-54041651D01*
X136246868Y-54050830D01*
X136265281Y-54061866D01*
X136282524Y-54074654D01*
X136298430Y-54089070D01*
X136312846Y-54104976D01*
X136325634Y-54122219D01*
X136336670Y-54140632D01*
X136345849Y-54160038D01*
X136353081Y-54180250D01*
X136358297Y-54201074D01*
X136361447Y-54222309D01*
X136362500Y-54243750D01*
X136362500Y-54756250D01*
X136361447Y-54777691D01*
X136358297Y-54798926D01*
X136353081Y-54819750D01*
X136345849Y-54839962D01*
X136336670Y-54859368D01*
X136325634Y-54877781D01*
X136312846Y-54895024D01*
X136298430Y-54910930D01*
X136282524Y-54925346D01*
X136265281Y-54938134D01*
X136246868Y-54949170D01*
X136227462Y-54958349D01*
X136207250Y-54965581D01*
X136186426Y-54970797D01*
X136165191Y-54973947D01*
X136143750Y-54975000D01*
X135706250Y-54975000D01*
X135684809Y-54973947D01*
X135663574Y-54970797D01*
X135642750Y-54965581D01*
X135622538Y-54958349D01*
X135603132Y-54949170D01*
X135584719Y-54938134D01*
X135567476Y-54925346D01*
X135551570Y-54910930D01*
X135537154Y-54895024D01*
X135524366Y-54877781D01*
X135513330Y-54859368D01*
X135504151Y-54839962D01*
X135496919Y-54819750D01*
X135491703Y-54798926D01*
X135488553Y-54777691D01*
X135487500Y-54756250D01*
X135487500Y-54243750D01*
X135488553Y-54222309D01*
X135491703Y-54201074D01*
X135496919Y-54180250D01*
X135504151Y-54160038D01*
X135513330Y-54140632D01*
X135524366Y-54122219D01*
X135537154Y-54104976D01*
X135551570Y-54089070D01*
X135567476Y-54074654D01*
X135584719Y-54061866D01*
X135603132Y-54050830D01*
X135622538Y-54041651D01*
X135642750Y-54034419D01*
X135663574Y-54029203D01*
X135684809Y-54026053D01*
X135706250Y-54025000D01*
X136143750Y-54025000D01*
X136165191Y-54026053D01*
X136165191Y-54026053D01*
G37*
D13*
X135925000Y-54500000D03*
G04 #@! TD*
D11*
G04 #@! TO.C,C4*
G36*
X182565191Y-63026053D02*
X182586426Y-63029203D01*
X182607250Y-63034419D01*
X182627462Y-63041651D01*
X182646868Y-63050830D01*
X182665281Y-63061866D01*
X182682524Y-63074654D01*
X182698430Y-63089070D01*
X182712846Y-63104976D01*
X182725634Y-63122219D01*
X182736670Y-63140632D01*
X182745849Y-63160038D01*
X182753081Y-63180250D01*
X182758297Y-63201074D01*
X182761447Y-63222309D01*
X182762500Y-63243750D01*
X182762500Y-63756250D01*
X182761447Y-63777691D01*
X182758297Y-63798926D01*
X182753081Y-63819750D01*
X182745849Y-63839962D01*
X182736670Y-63859368D01*
X182725634Y-63877781D01*
X182712846Y-63895024D01*
X182698430Y-63910930D01*
X182682524Y-63925346D01*
X182665281Y-63938134D01*
X182646868Y-63949170D01*
X182627462Y-63958349D01*
X182607250Y-63965581D01*
X182586426Y-63970797D01*
X182565191Y-63973947D01*
X182543750Y-63975000D01*
X182106250Y-63975000D01*
X182084809Y-63973947D01*
X182063574Y-63970797D01*
X182042750Y-63965581D01*
X182022538Y-63958349D01*
X182003132Y-63949170D01*
X181984719Y-63938134D01*
X181967476Y-63925346D01*
X181951570Y-63910930D01*
X181937154Y-63895024D01*
X181924366Y-63877781D01*
X181913330Y-63859368D01*
X181904151Y-63839962D01*
X181896919Y-63819750D01*
X181891703Y-63798926D01*
X181888553Y-63777691D01*
X181887500Y-63756250D01*
X181887500Y-63243750D01*
X181888553Y-63222309D01*
X181891703Y-63201074D01*
X181896919Y-63180250D01*
X181904151Y-63160038D01*
X181913330Y-63140632D01*
X181924366Y-63122219D01*
X181937154Y-63104976D01*
X181951570Y-63089070D01*
X181967476Y-63074654D01*
X181984719Y-63061866D01*
X182003132Y-63050830D01*
X182022538Y-63041651D01*
X182042750Y-63034419D01*
X182063574Y-63029203D01*
X182084809Y-63026053D01*
X182106250Y-63025000D01*
X182543750Y-63025000D01*
X182565191Y-63026053D01*
X182565191Y-63026053D01*
G37*
D13*
X182325000Y-63500000D03*
D11*
G36*
X184140191Y-63026053D02*
X184161426Y-63029203D01*
X184182250Y-63034419D01*
X184202462Y-63041651D01*
X184221868Y-63050830D01*
X184240281Y-63061866D01*
X184257524Y-63074654D01*
X184273430Y-63089070D01*
X184287846Y-63104976D01*
X184300634Y-63122219D01*
X184311670Y-63140632D01*
X184320849Y-63160038D01*
X184328081Y-63180250D01*
X184333297Y-63201074D01*
X184336447Y-63222309D01*
X184337500Y-63243750D01*
X184337500Y-63756250D01*
X184336447Y-63777691D01*
X184333297Y-63798926D01*
X184328081Y-63819750D01*
X184320849Y-63839962D01*
X184311670Y-63859368D01*
X184300634Y-63877781D01*
X184287846Y-63895024D01*
X184273430Y-63910930D01*
X184257524Y-63925346D01*
X184240281Y-63938134D01*
X184221868Y-63949170D01*
X184202462Y-63958349D01*
X184182250Y-63965581D01*
X184161426Y-63970797D01*
X184140191Y-63973947D01*
X184118750Y-63975000D01*
X183681250Y-63975000D01*
X183659809Y-63973947D01*
X183638574Y-63970797D01*
X183617750Y-63965581D01*
X183597538Y-63958349D01*
X183578132Y-63949170D01*
X183559719Y-63938134D01*
X183542476Y-63925346D01*
X183526570Y-63910930D01*
X183512154Y-63895024D01*
X183499366Y-63877781D01*
X183488330Y-63859368D01*
X183479151Y-63839962D01*
X183471919Y-63819750D01*
X183466703Y-63798926D01*
X183463553Y-63777691D01*
X183462500Y-63756250D01*
X183462500Y-63243750D01*
X183463553Y-63222309D01*
X183466703Y-63201074D01*
X183471919Y-63180250D01*
X183479151Y-63160038D01*
X183488330Y-63140632D01*
X183499366Y-63122219D01*
X183512154Y-63104976D01*
X183526570Y-63089070D01*
X183542476Y-63074654D01*
X183559719Y-63061866D01*
X183578132Y-63050830D01*
X183597538Y-63041651D01*
X183617750Y-63034419D01*
X183638574Y-63029203D01*
X183659809Y-63026053D01*
X183681250Y-63025000D01*
X184118750Y-63025000D01*
X184140191Y-63026053D01*
X184140191Y-63026053D01*
G37*
D13*
X183900000Y-63500000D03*
G04 #@! TD*
D11*
G04 #@! TO.C,C1*
G36*
X182601115Y-77211302D02*
X182622350Y-77214452D01*
X182643174Y-77219668D01*
X182663386Y-77226900D01*
X182682792Y-77236079D01*
X182701205Y-77247115D01*
X182718448Y-77259903D01*
X182734354Y-77274319D01*
X182748770Y-77290225D01*
X182761558Y-77307468D01*
X182772594Y-77325881D01*
X182781773Y-77345287D01*
X182789005Y-77365499D01*
X182794221Y-77386323D01*
X182797371Y-77407558D01*
X182798424Y-77428999D01*
X182798424Y-77941499D01*
X182797371Y-77962940D01*
X182794221Y-77984175D01*
X182789005Y-78004999D01*
X182781773Y-78025211D01*
X182772594Y-78044617D01*
X182761558Y-78063030D01*
X182748770Y-78080273D01*
X182734354Y-78096179D01*
X182718448Y-78110595D01*
X182701205Y-78123383D01*
X182682792Y-78134419D01*
X182663386Y-78143598D01*
X182643174Y-78150830D01*
X182622350Y-78156046D01*
X182601115Y-78159196D01*
X182579674Y-78160249D01*
X182142174Y-78160249D01*
X182120733Y-78159196D01*
X182099498Y-78156046D01*
X182078674Y-78150830D01*
X182058462Y-78143598D01*
X182039056Y-78134419D01*
X182020643Y-78123383D01*
X182003400Y-78110595D01*
X181987494Y-78096179D01*
X181973078Y-78080273D01*
X181960290Y-78063030D01*
X181949254Y-78044617D01*
X181940075Y-78025211D01*
X181932843Y-78004999D01*
X181927627Y-77984175D01*
X181924477Y-77962940D01*
X181923424Y-77941499D01*
X181923424Y-77428999D01*
X181924477Y-77407558D01*
X181927627Y-77386323D01*
X181932843Y-77365499D01*
X181940075Y-77345287D01*
X181949254Y-77325881D01*
X181960290Y-77307468D01*
X181973078Y-77290225D01*
X181987494Y-77274319D01*
X182003400Y-77259903D01*
X182020643Y-77247115D01*
X182039056Y-77236079D01*
X182058462Y-77226900D01*
X182078674Y-77219668D01*
X182099498Y-77214452D01*
X182120733Y-77211302D01*
X182142174Y-77210249D01*
X182579674Y-77210249D01*
X182601115Y-77211302D01*
X182601115Y-77211302D01*
G37*
D13*
X182360924Y-77685249D03*
D11*
G36*
X181026115Y-77211302D02*
X181047350Y-77214452D01*
X181068174Y-77219668D01*
X181088386Y-77226900D01*
X181107792Y-77236079D01*
X181126205Y-77247115D01*
X181143448Y-77259903D01*
X181159354Y-77274319D01*
X181173770Y-77290225D01*
X181186558Y-77307468D01*
X181197594Y-77325881D01*
X181206773Y-77345287D01*
X181214005Y-77365499D01*
X181219221Y-77386323D01*
X181222371Y-77407558D01*
X181223424Y-77428999D01*
X181223424Y-77941499D01*
X181222371Y-77962940D01*
X181219221Y-77984175D01*
X181214005Y-78004999D01*
X181206773Y-78025211D01*
X181197594Y-78044617D01*
X181186558Y-78063030D01*
X181173770Y-78080273D01*
X181159354Y-78096179D01*
X181143448Y-78110595D01*
X181126205Y-78123383D01*
X181107792Y-78134419D01*
X181088386Y-78143598D01*
X181068174Y-78150830D01*
X181047350Y-78156046D01*
X181026115Y-78159196D01*
X181004674Y-78160249D01*
X180567174Y-78160249D01*
X180545733Y-78159196D01*
X180524498Y-78156046D01*
X180503674Y-78150830D01*
X180483462Y-78143598D01*
X180464056Y-78134419D01*
X180445643Y-78123383D01*
X180428400Y-78110595D01*
X180412494Y-78096179D01*
X180398078Y-78080273D01*
X180385290Y-78063030D01*
X180374254Y-78044617D01*
X180365075Y-78025211D01*
X180357843Y-78004999D01*
X180352627Y-77984175D01*
X180349477Y-77962940D01*
X180348424Y-77941499D01*
X180348424Y-77428999D01*
X180349477Y-77407558D01*
X180352627Y-77386323D01*
X180357843Y-77365499D01*
X180365075Y-77345287D01*
X180374254Y-77325881D01*
X180385290Y-77307468D01*
X180398078Y-77290225D01*
X180412494Y-77274319D01*
X180428400Y-77259903D01*
X180445643Y-77247115D01*
X180464056Y-77236079D01*
X180483462Y-77226900D01*
X180503674Y-77219668D01*
X180524498Y-77214452D01*
X180545733Y-77211302D01*
X180567174Y-77210249D01*
X181004674Y-77210249D01*
X181026115Y-77211302D01*
X181026115Y-77211302D01*
G37*
D13*
X180785924Y-77685249D03*
G04 #@! TD*
D11*
G04 #@! TO.C,C8*
G36*
X156440191Y-71426053D02*
X156461426Y-71429203D01*
X156482250Y-71434419D01*
X156502462Y-71441651D01*
X156521868Y-71450830D01*
X156540281Y-71461866D01*
X156557524Y-71474654D01*
X156573430Y-71489070D01*
X156587846Y-71504976D01*
X156600634Y-71522219D01*
X156611670Y-71540632D01*
X156620849Y-71560038D01*
X156628081Y-71580250D01*
X156633297Y-71601074D01*
X156636447Y-71622309D01*
X156637500Y-71643750D01*
X156637500Y-72156250D01*
X156636447Y-72177691D01*
X156633297Y-72198926D01*
X156628081Y-72219750D01*
X156620849Y-72239962D01*
X156611670Y-72259368D01*
X156600634Y-72277781D01*
X156587846Y-72295024D01*
X156573430Y-72310930D01*
X156557524Y-72325346D01*
X156540281Y-72338134D01*
X156521868Y-72349170D01*
X156502462Y-72358349D01*
X156482250Y-72365581D01*
X156461426Y-72370797D01*
X156440191Y-72373947D01*
X156418750Y-72375000D01*
X155981250Y-72375000D01*
X155959809Y-72373947D01*
X155938574Y-72370797D01*
X155917750Y-72365581D01*
X155897538Y-72358349D01*
X155878132Y-72349170D01*
X155859719Y-72338134D01*
X155842476Y-72325346D01*
X155826570Y-72310930D01*
X155812154Y-72295024D01*
X155799366Y-72277781D01*
X155788330Y-72259368D01*
X155779151Y-72239962D01*
X155771919Y-72219750D01*
X155766703Y-72198926D01*
X155763553Y-72177691D01*
X155762500Y-72156250D01*
X155762500Y-71643750D01*
X155763553Y-71622309D01*
X155766703Y-71601074D01*
X155771919Y-71580250D01*
X155779151Y-71560038D01*
X155788330Y-71540632D01*
X155799366Y-71522219D01*
X155812154Y-71504976D01*
X155826570Y-71489070D01*
X155842476Y-71474654D01*
X155859719Y-71461866D01*
X155878132Y-71450830D01*
X155897538Y-71441651D01*
X155917750Y-71434419D01*
X155938574Y-71429203D01*
X155959809Y-71426053D01*
X155981250Y-71425000D01*
X156418750Y-71425000D01*
X156440191Y-71426053D01*
X156440191Y-71426053D01*
G37*
D13*
X156200000Y-71900000D03*
D11*
G36*
X158015191Y-71426053D02*
X158036426Y-71429203D01*
X158057250Y-71434419D01*
X158077462Y-71441651D01*
X158096868Y-71450830D01*
X158115281Y-71461866D01*
X158132524Y-71474654D01*
X158148430Y-71489070D01*
X158162846Y-71504976D01*
X158175634Y-71522219D01*
X158186670Y-71540632D01*
X158195849Y-71560038D01*
X158203081Y-71580250D01*
X158208297Y-71601074D01*
X158211447Y-71622309D01*
X158212500Y-71643750D01*
X158212500Y-72156250D01*
X158211447Y-72177691D01*
X158208297Y-72198926D01*
X158203081Y-72219750D01*
X158195849Y-72239962D01*
X158186670Y-72259368D01*
X158175634Y-72277781D01*
X158162846Y-72295024D01*
X158148430Y-72310930D01*
X158132524Y-72325346D01*
X158115281Y-72338134D01*
X158096868Y-72349170D01*
X158077462Y-72358349D01*
X158057250Y-72365581D01*
X158036426Y-72370797D01*
X158015191Y-72373947D01*
X157993750Y-72375000D01*
X157556250Y-72375000D01*
X157534809Y-72373947D01*
X157513574Y-72370797D01*
X157492750Y-72365581D01*
X157472538Y-72358349D01*
X157453132Y-72349170D01*
X157434719Y-72338134D01*
X157417476Y-72325346D01*
X157401570Y-72310930D01*
X157387154Y-72295024D01*
X157374366Y-72277781D01*
X157363330Y-72259368D01*
X157354151Y-72239962D01*
X157346919Y-72219750D01*
X157341703Y-72198926D01*
X157338553Y-72177691D01*
X157337500Y-72156250D01*
X157337500Y-71643750D01*
X157338553Y-71622309D01*
X157341703Y-71601074D01*
X157346919Y-71580250D01*
X157354151Y-71560038D01*
X157363330Y-71540632D01*
X157374366Y-71522219D01*
X157387154Y-71504976D01*
X157401570Y-71489070D01*
X157417476Y-71474654D01*
X157434719Y-71461866D01*
X157453132Y-71450830D01*
X157472538Y-71441651D01*
X157492750Y-71434419D01*
X157513574Y-71429203D01*
X157534809Y-71426053D01*
X157556250Y-71425000D01*
X157993750Y-71425000D01*
X158015191Y-71426053D01*
X158015191Y-71426053D01*
G37*
D13*
X157775000Y-71900000D03*
G04 #@! TD*
D11*
G04 #@! TO.C,C9*
G36*
X149952691Y-66326053D02*
X149973926Y-66329203D01*
X149994750Y-66334419D01*
X150014962Y-66341651D01*
X150034368Y-66350830D01*
X150052781Y-66361866D01*
X150070024Y-66374654D01*
X150085930Y-66389070D01*
X150100346Y-66404976D01*
X150113134Y-66422219D01*
X150124170Y-66440632D01*
X150133349Y-66460038D01*
X150140581Y-66480250D01*
X150145797Y-66501074D01*
X150148947Y-66522309D01*
X150150000Y-66543750D01*
X150150000Y-67056250D01*
X150148947Y-67077691D01*
X150145797Y-67098926D01*
X150140581Y-67119750D01*
X150133349Y-67139962D01*
X150124170Y-67159368D01*
X150113134Y-67177781D01*
X150100346Y-67195024D01*
X150085930Y-67210930D01*
X150070024Y-67225346D01*
X150052781Y-67238134D01*
X150034368Y-67249170D01*
X150014962Y-67258349D01*
X149994750Y-67265581D01*
X149973926Y-67270797D01*
X149952691Y-67273947D01*
X149931250Y-67275000D01*
X149493750Y-67275000D01*
X149472309Y-67273947D01*
X149451074Y-67270797D01*
X149430250Y-67265581D01*
X149410038Y-67258349D01*
X149390632Y-67249170D01*
X149372219Y-67238134D01*
X149354976Y-67225346D01*
X149339070Y-67210930D01*
X149324654Y-67195024D01*
X149311866Y-67177781D01*
X149300830Y-67159368D01*
X149291651Y-67139962D01*
X149284419Y-67119750D01*
X149279203Y-67098926D01*
X149276053Y-67077691D01*
X149275000Y-67056250D01*
X149275000Y-66543750D01*
X149276053Y-66522309D01*
X149279203Y-66501074D01*
X149284419Y-66480250D01*
X149291651Y-66460038D01*
X149300830Y-66440632D01*
X149311866Y-66422219D01*
X149324654Y-66404976D01*
X149339070Y-66389070D01*
X149354976Y-66374654D01*
X149372219Y-66361866D01*
X149390632Y-66350830D01*
X149410038Y-66341651D01*
X149430250Y-66334419D01*
X149451074Y-66329203D01*
X149472309Y-66326053D01*
X149493750Y-66325000D01*
X149931250Y-66325000D01*
X149952691Y-66326053D01*
X149952691Y-66326053D01*
G37*
D13*
X149712500Y-66800000D03*
D11*
G36*
X151527691Y-66326053D02*
X151548926Y-66329203D01*
X151569750Y-66334419D01*
X151589962Y-66341651D01*
X151609368Y-66350830D01*
X151627781Y-66361866D01*
X151645024Y-66374654D01*
X151660930Y-66389070D01*
X151675346Y-66404976D01*
X151688134Y-66422219D01*
X151699170Y-66440632D01*
X151708349Y-66460038D01*
X151715581Y-66480250D01*
X151720797Y-66501074D01*
X151723947Y-66522309D01*
X151725000Y-66543750D01*
X151725000Y-67056250D01*
X151723947Y-67077691D01*
X151720797Y-67098926D01*
X151715581Y-67119750D01*
X151708349Y-67139962D01*
X151699170Y-67159368D01*
X151688134Y-67177781D01*
X151675346Y-67195024D01*
X151660930Y-67210930D01*
X151645024Y-67225346D01*
X151627781Y-67238134D01*
X151609368Y-67249170D01*
X151589962Y-67258349D01*
X151569750Y-67265581D01*
X151548926Y-67270797D01*
X151527691Y-67273947D01*
X151506250Y-67275000D01*
X151068750Y-67275000D01*
X151047309Y-67273947D01*
X151026074Y-67270797D01*
X151005250Y-67265581D01*
X150985038Y-67258349D01*
X150965632Y-67249170D01*
X150947219Y-67238134D01*
X150929976Y-67225346D01*
X150914070Y-67210930D01*
X150899654Y-67195024D01*
X150886866Y-67177781D01*
X150875830Y-67159368D01*
X150866651Y-67139962D01*
X150859419Y-67119750D01*
X150854203Y-67098926D01*
X150851053Y-67077691D01*
X150850000Y-67056250D01*
X150850000Y-66543750D01*
X150851053Y-66522309D01*
X150854203Y-66501074D01*
X150859419Y-66480250D01*
X150866651Y-66460038D01*
X150875830Y-66440632D01*
X150886866Y-66422219D01*
X150899654Y-66404976D01*
X150914070Y-66389070D01*
X150929976Y-66374654D01*
X150947219Y-66361866D01*
X150965632Y-66350830D01*
X150985038Y-66341651D01*
X151005250Y-66334419D01*
X151026074Y-66329203D01*
X151047309Y-66326053D01*
X151068750Y-66325000D01*
X151506250Y-66325000D01*
X151527691Y-66326053D01*
X151527691Y-66326053D01*
G37*
D13*
X151287500Y-66800000D03*
G04 #@! TD*
D11*
G04 #@! TO.C,C11*
G36*
X148499504Y-69076204D02*
X148523773Y-69079804D01*
X148547571Y-69085765D01*
X148570671Y-69094030D01*
X148592849Y-69104520D01*
X148613893Y-69117133D01*
X148633598Y-69131747D01*
X148651777Y-69148223D01*
X148668253Y-69166402D01*
X148682867Y-69186107D01*
X148695480Y-69207151D01*
X148705970Y-69229329D01*
X148714235Y-69252429D01*
X148720196Y-69276227D01*
X148723796Y-69300496D01*
X148725000Y-69325000D01*
X148725000Y-70075000D01*
X148723796Y-70099504D01*
X148720196Y-70123773D01*
X148714235Y-70147571D01*
X148705970Y-70170671D01*
X148695480Y-70192849D01*
X148682867Y-70213893D01*
X148668253Y-70233598D01*
X148651777Y-70251777D01*
X148633598Y-70268253D01*
X148613893Y-70282867D01*
X148592849Y-70295480D01*
X148570671Y-70305970D01*
X148547571Y-70314235D01*
X148523773Y-70320196D01*
X148499504Y-70323796D01*
X148475000Y-70325000D01*
X146325000Y-70325000D01*
X146300496Y-70323796D01*
X146276227Y-70320196D01*
X146252429Y-70314235D01*
X146229329Y-70305970D01*
X146207151Y-70295480D01*
X146186107Y-70282867D01*
X146166402Y-70268253D01*
X146148223Y-70251777D01*
X146131747Y-70233598D01*
X146117133Y-70213893D01*
X146104520Y-70192849D01*
X146094030Y-70170671D01*
X146085765Y-70147571D01*
X146079804Y-70123773D01*
X146076204Y-70099504D01*
X146075000Y-70075000D01*
X146075000Y-69325000D01*
X146076204Y-69300496D01*
X146079804Y-69276227D01*
X146085765Y-69252429D01*
X146094030Y-69229329D01*
X146104520Y-69207151D01*
X146117133Y-69186107D01*
X146131747Y-69166402D01*
X146148223Y-69148223D01*
X146166402Y-69131747D01*
X146186107Y-69117133D01*
X146207151Y-69104520D01*
X146229329Y-69094030D01*
X146252429Y-69085765D01*
X146276227Y-69079804D01*
X146300496Y-69076204D01*
X146325000Y-69075000D01*
X148475000Y-69075000D01*
X148499504Y-69076204D01*
X148499504Y-69076204D01*
G37*
D14*
X147400000Y-69700000D03*
D11*
G36*
X148499504Y-66276204D02*
X148523773Y-66279804D01*
X148547571Y-66285765D01*
X148570671Y-66294030D01*
X148592849Y-66304520D01*
X148613893Y-66317133D01*
X148633598Y-66331747D01*
X148651777Y-66348223D01*
X148668253Y-66366402D01*
X148682867Y-66386107D01*
X148695480Y-66407151D01*
X148705970Y-66429329D01*
X148714235Y-66452429D01*
X148720196Y-66476227D01*
X148723796Y-66500496D01*
X148725000Y-66525000D01*
X148725000Y-67275000D01*
X148723796Y-67299504D01*
X148720196Y-67323773D01*
X148714235Y-67347571D01*
X148705970Y-67370671D01*
X148695480Y-67392849D01*
X148682867Y-67413893D01*
X148668253Y-67433598D01*
X148651777Y-67451777D01*
X148633598Y-67468253D01*
X148613893Y-67482867D01*
X148592849Y-67495480D01*
X148570671Y-67505970D01*
X148547571Y-67514235D01*
X148523773Y-67520196D01*
X148499504Y-67523796D01*
X148475000Y-67525000D01*
X146325000Y-67525000D01*
X146300496Y-67523796D01*
X146276227Y-67520196D01*
X146252429Y-67514235D01*
X146229329Y-67505970D01*
X146207151Y-67495480D01*
X146186107Y-67482867D01*
X146166402Y-67468253D01*
X146148223Y-67451777D01*
X146131747Y-67433598D01*
X146117133Y-67413893D01*
X146104520Y-67392849D01*
X146094030Y-67370671D01*
X146085765Y-67347571D01*
X146079804Y-67323773D01*
X146076204Y-67299504D01*
X146075000Y-67275000D01*
X146075000Y-66525000D01*
X146076204Y-66500496D01*
X146079804Y-66476227D01*
X146085765Y-66452429D01*
X146094030Y-66429329D01*
X146104520Y-66407151D01*
X146117133Y-66386107D01*
X146131747Y-66366402D01*
X146148223Y-66348223D01*
X146166402Y-66331747D01*
X146186107Y-66317133D01*
X146207151Y-66304520D01*
X146229329Y-66294030D01*
X146252429Y-66285765D01*
X146276227Y-66279804D01*
X146300496Y-66276204D01*
X146325000Y-66275000D01*
X148475000Y-66275000D01*
X148499504Y-66276204D01*
X148499504Y-66276204D01*
G37*
D14*
X147400000Y-66900000D03*
G04 #@! TD*
D11*
G04 #@! TO.C,C7*
G36*
X154799504Y-62276204D02*
X154823773Y-62279804D01*
X154847571Y-62285765D01*
X154870671Y-62294030D01*
X154892849Y-62304520D01*
X154913893Y-62317133D01*
X154933598Y-62331747D01*
X154951777Y-62348223D01*
X154968253Y-62366402D01*
X154982867Y-62386107D01*
X154995480Y-62407151D01*
X155005970Y-62429329D01*
X155014235Y-62452429D01*
X155020196Y-62476227D01*
X155023796Y-62500496D01*
X155025000Y-62525000D01*
X155025000Y-63275000D01*
X155023796Y-63299504D01*
X155020196Y-63323773D01*
X155014235Y-63347571D01*
X155005970Y-63370671D01*
X154995480Y-63392849D01*
X154982867Y-63413893D01*
X154968253Y-63433598D01*
X154951777Y-63451777D01*
X154933598Y-63468253D01*
X154913893Y-63482867D01*
X154892849Y-63495480D01*
X154870671Y-63505970D01*
X154847571Y-63514235D01*
X154823773Y-63520196D01*
X154799504Y-63523796D01*
X154775000Y-63525000D01*
X152625000Y-63525000D01*
X152600496Y-63523796D01*
X152576227Y-63520196D01*
X152552429Y-63514235D01*
X152529329Y-63505970D01*
X152507151Y-63495480D01*
X152486107Y-63482867D01*
X152466402Y-63468253D01*
X152448223Y-63451777D01*
X152431747Y-63433598D01*
X152417133Y-63413893D01*
X152404520Y-63392849D01*
X152394030Y-63370671D01*
X152385765Y-63347571D01*
X152379804Y-63323773D01*
X152376204Y-63299504D01*
X152375000Y-63275000D01*
X152375000Y-62525000D01*
X152376204Y-62500496D01*
X152379804Y-62476227D01*
X152385765Y-62452429D01*
X152394030Y-62429329D01*
X152404520Y-62407151D01*
X152417133Y-62386107D01*
X152431747Y-62366402D01*
X152448223Y-62348223D01*
X152466402Y-62331747D01*
X152486107Y-62317133D01*
X152507151Y-62304520D01*
X152529329Y-62294030D01*
X152552429Y-62285765D01*
X152576227Y-62279804D01*
X152600496Y-62276204D01*
X152625000Y-62275000D01*
X154775000Y-62275000D01*
X154799504Y-62276204D01*
X154799504Y-62276204D01*
G37*
D14*
X153700000Y-62900000D03*
D11*
G36*
X154799504Y-65076204D02*
X154823773Y-65079804D01*
X154847571Y-65085765D01*
X154870671Y-65094030D01*
X154892849Y-65104520D01*
X154913893Y-65117133D01*
X154933598Y-65131747D01*
X154951777Y-65148223D01*
X154968253Y-65166402D01*
X154982867Y-65186107D01*
X154995480Y-65207151D01*
X155005970Y-65229329D01*
X155014235Y-65252429D01*
X155020196Y-65276227D01*
X155023796Y-65300496D01*
X155025000Y-65325000D01*
X155025000Y-66075000D01*
X155023796Y-66099504D01*
X155020196Y-66123773D01*
X155014235Y-66147571D01*
X155005970Y-66170671D01*
X154995480Y-66192849D01*
X154982867Y-66213893D01*
X154968253Y-66233598D01*
X154951777Y-66251777D01*
X154933598Y-66268253D01*
X154913893Y-66282867D01*
X154892849Y-66295480D01*
X154870671Y-66305970D01*
X154847571Y-66314235D01*
X154823773Y-66320196D01*
X154799504Y-66323796D01*
X154775000Y-66325000D01*
X152625000Y-66325000D01*
X152600496Y-66323796D01*
X152576227Y-66320196D01*
X152552429Y-66314235D01*
X152529329Y-66305970D01*
X152507151Y-66295480D01*
X152486107Y-66282867D01*
X152466402Y-66268253D01*
X152448223Y-66251777D01*
X152431747Y-66233598D01*
X152417133Y-66213893D01*
X152404520Y-66192849D01*
X152394030Y-66170671D01*
X152385765Y-66147571D01*
X152379804Y-66123773D01*
X152376204Y-66099504D01*
X152375000Y-66075000D01*
X152375000Y-65325000D01*
X152376204Y-65300496D01*
X152379804Y-65276227D01*
X152385765Y-65252429D01*
X152394030Y-65229329D01*
X152404520Y-65207151D01*
X152417133Y-65186107D01*
X152431747Y-65166402D01*
X152448223Y-65148223D01*
X152466402Y-65131747D01*
X152486107Y-65117133D01*
X152507151Y-65104520D01*
X152529329Y-65094030D01*
X152552429Y-65085765D01*
X152576227Y-65079804D01*
X152600496Y-65076204D01*
X152625000Y-65075000D01*
X154775000Y-65075000D01*
X154799504Y-65076204D01*
X154799504Y-65076204D01*
G37*
D14*
X153700000Y-65700000D03*
G04 #@! TD*
D11*
G04 #@! TO.C,C10*
G36*
X145299504Y-69076204D02*
X145323773Y-69079804D01*
X145347571Y-69085765D01*
X145370671Y-69094030D01*
X145392849Y-69104520D01*
X145413893Y-69117133D01*
X145433598Y-69131747D01*
X145451777Y-69148223D01*
X145468253Y-69166402D01*
X145482867Y-69186107D01*
X145495480Y-69207151D01*
X145505970Y-69229329D01*
X145514235Y-69252429D01*
X145520196Y-69276227D01*
X145523796Y-69300496D01*
X145525000Y-69325000D01*
X145525000Y-70075000D01*
X145523796Y-70099504D01*
X145520196Y-70123773D01*
X145514235Y-70147571D01*
X145505970Y-70170671D01*
X145495480Y-70192849D01*
X145482867Y-70213893D01*
X145468253Y-70233598D01*
X145451777Y-70251777D01*
X145433598Y-70268253D01*
X145413893Y-70282867D01*
X145392849Y-70295480D01*
X145370671Y-70305970D01*
X145347571Y-70314235D01*
X145323773Y-70320196D01*
X145299504Y-70323796D01*
X145275000Y-70325000D01*
X143125000Y-70325000D01*
X143100496Y-70323796D01*
X143076227Y-70320196D01*
X143052429Y-70314235D01*
X143029329Y-70305970D01*
X143007151Y-70295480D01*
X142986107Y-70282867D01*
X142966402Y-70268253D01*
X142948223Y-70251777D01*
X142931747Y-70233598D01*
X142917133Y-70213893D01*
X142904520Y-70192849D01*
X142894030Y-70170671D01*
X142885765Y-70147571D01*
X142879804Y-70123773D01*
X142876204Y-70099504D01*
X142875000Y-70075000D01*
X142875000Y-69325000D01*
X142876204Y-69300496D01*
X142879804Y-69276227D01*
X142885765Y-69252429D01*
X142894030Y-69229329D01*
X142904520Y-69207151D01*
X142917133Y-69186107D01*
X142931747Y-69166402D01*
X142948223Y-69148223D01*
X142966402Y-69131747D01*
X142986107Y-69117133D01*
X143007151Y-69104520D01*
X143029329Y-69094030D01*
X143052429Y-69085765D01*
X143076227Y-69079804D01*
X143100496Y-69076204D01*
X143125000Y-69075000D01*
X145275000Y-69075000D01*
X145299504Y-69076204D01*
X145299504Y-69076204D01*
G37*
D14*
X144200000Y-69700000D03*
D11*
G36*
X145299504Y-66276204D02*
X145323773Y-66279804D01*
X145347571Y-66285765D01*
X145370671Y-66294030D01*
X145392849Y-66304520D01*
X145413893Y-66317133D01*
X145433598Y-66331747D01*
X145451777Y-66348223D01*
X145468253Y-66366402D01*
X145482867Y-66386107D01*
X145495480Y-66407151D01*
X145505970Y-66429329D01*
X145514235Y-66452429D01*
X145520196Y-66476227D01*
X145523796Y-66500496D01*
X145525000Y-66525000D01*
X145525000Y-67275000D01*
X145523796Y-67299504D01*
X145520196Y-67323773D01*
X145514235Y-67347571D01*
X145505970Y-67370671D01*
X145495480Y-67392849D01*
X145482867Y-67413893D01*
X145468253Y-67433598D01*
X145451777Y-67451777D01*
X145433598Y-67468253D01*
X145413893Y-67482867D01*
X145392849Y-67495480D01*
X145370671Y-67505970D01*
X145347571Y-67514235D01*
X145323773Y-67520196D01*
X145299504Y-67523796D01*
X145275000Y-67525000D01*
X143125000Y-67525000D01*
X143100496Y-67523796D01*
X143076227Y-67520196D01*
X143052429Y-67514235D01*
X143029329Y-67505970D01*
X143007151Y-67495480D01*
X142986107Y-67482867D01*
X142966402Y-67468253D01*
X142948223Y-67451777D01*
X142931747Y-67433598D01*
X142917133Y-67413893D01*
X142904520Y-67392849D01*
X142894030Y-67370671D01*
X142885765Y-67347571D01*
X142879804Y-67323773D01*
X142876204Y-67299504D01*
X142875000Y-67275000D01*
X142875000Y-66525000D01*
X142876204Y-66500496D01*
X142879804Y-66476227D01*
X142885765Y-66452429D01*
X142894030Y-66429329D01*
X142904520Y-66407151D01*
X142917133Y-66386107D01*
X142931747Y-66366402D01*
X142948223Y-66348223D01*
X142966402Y-66331747D01*
X142986107Y-66317133D01*
X143007151Y-66304520D01*
X143029329Y-66294030D01*
X143052429Y-66285765D01*
X143076227Y-66279804D01*
X143100496Y-66276204D01*
X143125000Y-66275000D01*
X145275000Y-66275000D01*
X145299504Y-66276204D01*
X145299504Y-66276204D01*
G37*
D14*
X144200000Y-66900000D03*
G04 #@! TD*
D11*
G04 #@! TO.C,C12*
G36*
X140899504Y-58476204D02*
X140923773Y-58479804D01*
X140947571Y-58485765D01*
X140970671Y-58494030D01*
X140992849Y-58504520D01*
X141013893Y-58517133D01*
X141033598Y-58531747D01*
X141051777Y-58548223D01*
X141068253Y-58566402D01*
X141082867Y-58586107D01*
X141095480Y-58607151D01*
X141105970Y-58629329D01*
X141114235Y-58652429D01*
X141120196Y-58676227D01*
X141123796Y-58700496D01*
X141125000Y-58725000D01*
X141125000Y-59475000D01*
X141123796Y-59499504D01*
X141120196Y-59523773D01*
X141114235Y-59547571D01*
X141105970Y-59570671D01*
X141095480Y-59592849D01*
X141082867Y-59613893D01*
X141068253Y-59633598D01*
X141051777Y-59651777D01*
X141033598Y-59668253D01*
X141013893Y-59682867D01*
X140992849Y-59695480D01*
X140970671Y-59705970D01*
X140947571Y-59714235D01*
X140923773Y-59720196D01*
X140899504Y-59723796D01*
X140875000Y-59725000D01*
X138725000Y-59725000D01*
X138700496Y-59723796D01*
X138676227Y-59720196D01*
X138652429Y-59714235D01*
X138629329Y-59705970D01*
X138607151Y-59695480D01*
X138586107Y-59682867D01*
X138566402Y-59668253D01*
X138548223Y-59651777D01*
X138531747Y-59633598D01*
X138517133Y-59613893D01*
X138504520Y-59592849D01*
X138494030Y-59570671D01*
X138485765Y-59547571D01*
X138479804Y-59523773D01*
X138476204Y-59499504D01*
X138475000Y-59475000D01*
X138475000Y-58725000D01*
X138476204Y-58700496D01*
X138479804Y-58676227D01*
X138485765Y-58652429D01*
X138494030Y-58629329D01*
X138504520Y-58607151D01*
X138517133Y-58586107D01*
X138531747Y-58566402D01*
X138548223Y-58548223D01*
X138566402Y-58531747D01*
X138586107Y-58517133D01*
X138607151Y-58504520D01*
X138629329Y-58494030D01*
X138652429Y-58485765D01*
X138676227Y-58479804D01*
X138700496Y-58476204D01*
X138725000Y-58475000D01*
X140875000Y-58475000D01*
X140899504Y-58476204D01*
X140899504Y-58476204D01*
G37*
D14*
X139800000Y-59100000D03*
D11*
G36*
X140899504Y-55676204D02*
X140923773Y-55679804D01*
X140947571Y-55685765D01*
X140970671Y-55694030D01*
X140992849Y-55704520D01*
X141013893Y-55717133D01*
X141033598Y-55731747D01*
X141051777Y-55748223D01*
X141068253Y-55766402D01*
X141082867Y-55786107D01*
X141095480Y-55807151D01*
X141105970Y-55829329D01*
X141114235Y-55852429D01*
X141120196Y-55876227D01*
X141123796Y-55900496D01*
X141125000Y-55925000D01*
X141125000Y-56675000D01*
X141123796Y-56699504D01*
X141120196Y-56723773D01*
X141114235Y-56747571D01*
X141105970Y-56770671D01*
X141095480Y-56792849D01*
X141082867Y-56813893D01*
X141068253Y-56833598D01*
X141051777Y-56851777D01*
X141033598Y-56868253D01*
X141013893Y-56882867D01*
X140992849Y-56895480D01*
X140970671Y-56905970D01*
X140947571Y-56914235D01*
X140923773Y-56920196D01*
X140899504Y-56923796D01*
X140875000Y-56925000D01*
X138725000Y-56925000D01*
X138700496Y-56923796D01*
X138676227Y-56920196D01*
X138652429Y-56914235D01*
X138629329Y-56905970D01*
X138607151Y-56895480D01*
X138586107Y-56882867D01*
X138566402Y-56868253D01*
X138548223Y-56851777D01*
X138531747Y-56833598D01*
X138517133Y-56813893D01*
X138504520Y-56792849D01*
X138494030Y-56770671D01*
X138485765Y-56747571D01*
X138479804Y-56723773D01*
X138476204Y-56699504D01*
X138475000Y-56675000D01*
X138475000Y-55925000D01*
X138476204Y-55900496D01*
X138479804Y-55876227D01*
X138485765Y-55852429D01*
X138494030Y-55829329D01*
X138504520Y-55807151D01*
X138517133Y-55786107D01*
X138531747Y-55766402D01*
X138548223Y-55748223D01*
X138566402Y-55731747D01*
X138586107Y-55717133D01*
X138607151Y-55704520D01*
X138629329Y-55694030D01*
X138652429Y-55685765D01*
X138676227Y-55679804D01*
X138700496Y-55676204D01*
X138725000Y-55675000D01*
X140875000Y-55675000D01*
X140899504Y-55676204D01*
X140899504Y-55676204D01*
G37*
D14*
X139800000Y-56300000D03*
G04 #@! TD*
D11*
G04 #@! TO.C,C6*
G36*
X157999504Y-65076204D02*
X158023773Y-65079804D01*
X158047571Y-65085765D01*
X158070671Y-65094030D01*
X158092849Y-65104520D01*
X158113893Y-65117133D01*
X158133598Y-65131747D01*
X158151777Y-65148223D01*
X158168253Y-65166402D01*
X158182867Y-65186107D01*
X158195480Y-65207151D01*
X158205970Y-65229329D01*
X158214235Y-65252429D01*
X158220196Y-65276227D01*
X158223796Y-65300496D01*
X158225000Y-65325000D01*
X158225000Y-66075000D01*
X158223796Y-66099504D01*
X158220196Y-66123773D01*
X158214235Y-66147571D01*
X158205970Y-66170671D01*
X158195480Y-66192849D01*
X158182867Y-66213893D01*
X158168253Y-66233598D01*
X158151777Y-66251777D01*
X158133598Y-66268253D01*
X158113893Y-66282867D01*
X158092849Y-66295480D01*
X158070671Y-66305970D01*
X158047571Y-66314235D01*
X158023773Y-66320196D01*
X157999504Y-66323796D01*
X157975000Y-66325000D01*
X155825000Y-66325000D01*
X155800496Y-66323796D01*
X155776227Y-66320196D01*
X155752429Y-66314235D01*
X155729329Y-66305970D01*
X155707151Y-66295480D01*
X155686107Y-66282867D01*
X155666402Y-66268253D01*
X155648223Y-66251777D01*
X155631747Y-66233598D01*
X155617133Y-66213893D01*
X155604520Y-66192849D01*
X155594030Y-66170671D01*
X155585765Y-66147571D01*
X155579804Y-66123773D01*
X155576204Y-66099504D01*
X155575000Y-66075000D01*
X155575000Y-65325000D01*
X155576204Y-65300496D01*
X155579804Y-65276227D01*
X155585765Y-65252429D01*
X155594030Y-65229329D01*
X155604520Y-65207151D01*
X155617133Y-65186107D01*
X155631747Y-65166402D01*
X155648223Y-65148223D01*
X155666402Y-65131747D01*
X155686107Y-65117133D01*
X155707151Y-65104520D01*
X155729329Y-65094030D01*
X155752429Y-65085765D01*
X155776227Y-65079804D01*
X155800496Y-65076204D01*
X155825000Y-65075000D01*
X157975000Y-65075000D01*
X157999504Y-65076204D01*
X157999504Y-65076204D01*
G37*
D14*
X156900000Y-65700000D03*
D11*
G36*
X157999504Y-62276204D02*
X158023773Y-62279804D01*
X158047571Y-62285765D01*
X158070671Y-62294030D01*
X158092849Y-62304520D01*
X158113893Y-62317133D01*
X158133598Y-62331747D01*
X158151777Y-62348223D01*
X158168253Y-62366402D01*
X158182867Y-62386107D01*
X158195480Y-62407151D01*
X158205970Y-62429329D01*
X158214235Y-62452429D01*
X158220196Y-62476227D01*
X158223796Y-62500496D01*
X158225000Y-62525000D01*
X158225000Y-63275000D01*
X158223796Y-63299504D01*
X158220196Y-63323773D01*
X158214235Y-63347571D01*
X158205970Y-63370671D01*
X158195480Y-63392849D01*
X158182867Y-63413893D01*
X158168253Y-63433598D01*
X158151777Y-63451777D01*
X158133598Y-63468253D01*
X158113893Y-63482867D01*
X158092849Y-63495480D01*
X158070671Y-63505970D01*
X158047571Y-63514235D01*
X158023773Y-63520196D01*
X157999504Y-63523796D01*
X157975000Y-63525000D01*
X155825000Y-63525000D01*
X155800496Y-63523796D01*
X155776227Y-63520196D01*
X155752429Y-63514235D01*
X155729329Y-63505970D01*
X155707151Y-63495480D01*
X155686107Y-63482867D01*
X155666402Y-63468253D01*
X155648223Y-63451777D01*
X155631747Y-63433598D01*
X155617133Y-63413893D01*
X155604520Y-63392849D01*
X155594030Y-63370671D01*
X155585765Y-63347571D01*
X155579804Y-63323773D01*
X155576204Y-63299504D01*
X155575000Y-63275000D01*
X155575000Y-62525000D01*
X155576204Y-62500496D01*
X155579804Y-62476227D01*
X155585765Y-62452429D01*
X155594030Y-62429329D01*
X155604520Y-62407151D01*
X155617133Y-62386107D01*
X155631747Y-62366402D01*
X155648223Y-62348223D01*
X155666402Y-62331747D01*
X155686107Y-62317133D01*
X155707151Y-62304520D01*
X155729329Y-62294030D01*
X155752429Y-62285765D01*
X155776227Y-62279804D01*
X155800496Y-62276204D01*
X155825000Y-62275000D01*
X157975000Y-62275000D01*
X157999504Y-62276204D01*
X157999504Y-62276204D01*
G37*
D14*
X156900000Y-62900000D03*
G04 #@! TD*
D15*
G04 #@! TO.C,D3*
X185500000Y-89200000D03*
X178700000Y-89200000D03*
G04 #@! TD*
D11*
G04 #@! TO.C,F1*
G36*
X186549504Y-92876204D02*
X186573773Y-92879804D01*
X186597571Y-92885765D01*
X186620671Y-92894030D01*
X186642849Y-92904520D01*
X186663893Y-92917133D01*
X186683598Y-92931747D01*
X186701777Y-92948223D01*
X186718253Y-92966402D01*
X186732867Y-92986107D01*
X186745480Y-93007151D01*
X186755970Y-93029329D01*
X186764235Y-93052429D01*
X186770196Y-93076227D01*
X186773796Y-93100496D01*
X186775000Y-93125000D01*
X186775000Y-93875000D01*
X186773796Y-93899504D01*
X186770196Y-93923773D01*
X186764235Y-93947571D01*
X186755970Y-93970671D01*
X186745480Y-93992849D01*
X186732867Y-94013893D01*
X186718253Y-94033598D01*
X186701777Y-94051777D01*
X186683598Y-94068253D01*
X186663893Y-94082867D01*
X186642849Y-94095480D01*
X186620671Y-94105970D01*
X186597571Y-94114235D01*
X186573773Y-94120196D01*
X186549504Y-94123796D01*
X186525000Y-94125000D01*
X185275000Y-94125000D01*
X185250496Y-94123796D01*
X185226227Y-94120196D01*
X185202429Y-94114235D01*
X185179329Y-94105970D01*
X185157151Y-94095480D01*
X185136107Y-94082867D01*
X185116402Y-94068253D01*
X185098223Y-94051777D01*
X185081747Y-94033598D01*
X185067133Y-94013893D01*
X185054520Y-93992849D01*
X185044030Y-93970671D01*
X185035765Y-93947571D01*
X185029804Y-93923773D01*
X185026204Y-93899504D01*
X185025000Y-93875000D01*
X185025000Y-93125000D01*
X185026204Y-93100496D01*
X185029804Y-93076227D01*
X185035765Y-93052429D01*
X185044030Y-93029329D01*
X185054520Y-93007151D01*
X185067133Y-92986107D01*
X185081747Y-92966402D01*
X185098223Y-92948223D01*
X185116402Y-92931747D01*
X185136107Y-92917133D01*
X185157151Y-92904520D01*
X185179329Y-92894030D01*
X185202429Y-92885765D01*
X185226227Y-92879804D01*
X185250496Y-92876204D01*
X185275000Y-92875000D01*
X186525000Y-92875000D01*
X186549504Y-92876204D01*
X186549504Y-92876204D01*
G37*
D14*
X185900000Y-93500000D03*
D11*
G36*
X186549504Y-95676204D02*
X186573773Y-95679804D01*
X186597571Y-95685765D01*
X186620671Y-95694030D01*
X186642849Y-95704520D01*
X186663893Y-95717133D01*
X186683598Y-95731747D01*
X186701777Y-95748223D01*
X186718253Y-95766402D01*
X186732867Y-95786107D01*
X186745480Y-95807151D01*
X186755970Y-95829329D01*
X186764235Y-95852429D01*
X186770196Y-95876227D01*
X186773796Y-95900496D01*
X186775000Y-95925000D01*
X186775000Y-96675000D01*
X186773796Y-96699504D01*
X186770196Y-96723773D01*
X186764235Y-96747571D01*
X186755970Y-96770671D01*
X186745480Y-96792849D01*
X186732867Y-96813893D01*
X186718253Y-96833598D01*
X186701777Y-96851777D01*
X186683598Y-96868253D01*
X186663893Y-96882867D01*
X186642849Y-96895480D01*
X186620671Y-96905970D01*
X186597571Y-96914235D01*
X186573773Y-96920196D01*
X186549504Y-96923796D01*
X186525000Y-96925000D01*
X185275000Y-96925000D01*
X185250496Y-96923796D01*
X185226227Y-96920196D01*
X185202429Y-96914235D01*
X185179329Y-96905970D01*
X185157151Y-96895480D01*
X185136107Y-96882867D01*
X185116402Y-96868253D01*
X185098223Y-96851777D01*
X185081747Y-96833598D01*
X185067133Y-96813893D01*
X185054520Y-96792849D01*
X185044030Y-96770671D01*
X185035765Y-96747571D01*
X185029804Y-96723773D01*
X185026204Y-96699504D01*
X185025000Y-96675000D01*
X185025000Y-95925000D01*
X185026204Y-95900496D01*
X185029804Y-95876227D01*
X185035765Y-95852429D01*
X185044030Y-95829329D01*
X185054520Y-95807151D01*
X185067133Y-95786107D01*
X185081747Y-95766402D01*
X185098223Y-95748223D01*
X185116402Y-95731747D01*
X185136107Y-95717133D01*
X185157151Y-95704520D01*
X185179329Y-95694030D01*
X185202429Y-95685765D01*
X185226227Y-95679804D01*
X185250496Y-95676204D01*
X185275000Y-95675000D01*
X186525000Y-95675000D01*
X186549504Y-95676204D01*
X186549504Y-95676204D01*
G37*
D14*
X185900000Y-96300000D03*
G04 #@! TD*
D16*
G04 #@! TO.C,L1*
X152700000Y-69800000D03*
X149900000Y-69800000D03*
G04 #@! TD*
D17*
G04 #@! TO.C,U3*
X180995000Y-61700000D03*
X182265000Y-61700000D03*
X183535000Y-61700000D03*
X184805000Y-61700000D03*
X184805000Y-56300000D03*
X183535000Y-56300000D03*
X182265000Y-56300000D03*
X180995000Y-56300000D03*
G04 #@! TD*
D18*
G04 #@! TO.C,U2*
X177500000Y-96000000D03*
X177500000Y-96950000D03*
X177500000Y-95050000D03*
X179700000Y-95050000D03*
X179700000Y-96000000D03*
X179700000Y-96950000D03*
G04 #@! TD*
G04 #@! TO.C,U4*
X158500000Y-70250000D03*
X158500000Y-69300000D03*
X158500000Y-68350000D03*
X156300000Y-68350000D03*
X156300000Y-70250000D03*
X156300000Y-69300000D03*
G04 #@! TD*
D19*
G04 #@! TO.C,U1*
X140750000Y-54550000D03*
X140750000Y-53250000D03*
X140750000Y-53900000D03*
X138850000Y-53250000D03*
X138850000Y-54550000D03*
G04 #@! TD*
D11*
G04 #@! TO.C,R2*
G36*
X184840191Y-75026053D02*
X184861426Y-75029203D01*
X184882250Y-75034419D01*
X184902462Y-75041651D01*
X184921868Y-75050830D01*
X184940281Y-75061866D01*
X184957524Y-75074654D01*
X184973430Y-75089070D01*
X184987846Y-75104976D01*
X185000634Y-75122219D01*
X185011670Y-75140632D01*
X185020849Y-75160038D01*
X185028081Y-75180250D01*
X185033297Y-75201074D01*
X185036447Y-75222309D01*
X185037500Y-75243750D01*
X185037500Y-75756250D01*
X185036447Y-75777691D01*
X185033297Y-75798926D01*
X185028081Y-75819750D01*
X185020849Y-75839962D01*
X185011670Y-75859368D01*
X185000634Y-75877781D01*
X184987846Y-75895024D01*
X184973430Y-75910930D01*
X184957524Y-75925346D01*
X184940281Y-75938134D01*
X184921868Y-75949170D01*
X184902462Y-75958349D01*
X184882250Y-75965581D01*
X184861426Y-75970797D01*
X184840191Y-75973947D01*
X184818750Y-75975000D01*
X184381250Y-75975000D01*
X184359809Y-75973947D01*
X184338574Y-75970797D01*
X184317750Y-75965581D01*
X184297538Y-75958349D01*
X184278132Y-75949170D01*
X184259719Y-75938134D01*
X184242476Y-75925346D01*
X184226570Y-75910930D01*
X184212154Y-75895024D01*
X184199366Y-75877781D01*
X184188330Y-75859368D01*
X184179151Y-75839962D01*
X184171919Y-75819750D01*
X184166703Y-75798926D01*
X184163553Y-75777691D01*
X184162500Y-75756250D01*
X184162500Y-75243750D01*
X184163553Y-75222309D01*
X184166703Y-75201074D01*
X184171919Y-75180250D01*
X184179151Y-75160038D01*
X184188330Y-75140632D01*
X184199366Y-75122219D01*
X184212154Y-75104976D01*
X184226570Y-75089070D01*
X184242476Y-75074654D01*
X184259719Y-75061866D01*
X184278132Y-75050830D01*
X184297538Y-75041651D01*
X184317750Y-75034419D01*
X184338574Y-75029203D01*
X184359809Y-75026053D01*
X184381250Y-75025000D01*
X184818750Y-75025000D01*
X184840191Y-75026053D01*
X184840191Y-75026053D01*
G37*
D13*
X184600000Y-75500000D03*
D11*
G36*
X186415191Y-75026053D02*
X186436426Y-75029203D01*
X186457250Y-75034419D01*
X186477462Y-75041651D01*
X186496868Y-75050830D01*
X186515281Y-75061866D01*
X186532524Y-75074654D01*
X186548430Y-75089070D01*
X186562846Y-75104976D01*
X186575634Y-75122219D01*
X186586670Y-75140632D01*
X186595849Y-75160038D01*
X186603081Y-75180250D01*
X186608297Y-75201074D01*
X186611447Y-75222309D01*
X186612500Y-75243750D01*
X186612500Y-75756250D01*
X186611447Y-75777691D01*
X186608297Y-75798926D01*
X186603081Y-75819750D01*
X186595849Y-75839962D01*
X186586670Y-75859368D01*
X186575634Y-75877781D01*
X186562846Y-75895024D01*
X186548430Y-75910930D01*
X186532524Y-75925346D01*
X186515281Y-75938134D01*
X186496868Y-75949170D01*
X186477462Y-75958349D01*
X186457250Y-75965581D01*
X186436426Y-75970797D01*
X186415191Y-75973947D01*
X186393750Y-75975000D01*
X185956250Y-75975000D01*
X185934809Y-75973947D01*
X185913574Y-75970797D01*
X185892750Y-75965581D01*
X185872538Y-75958349D01*
X185853132Y-75949170D01*
X185834719Y-75938134D01*
X185817476Y-75925346D01*
X185801570Y-75910930D01*
X185787154Y-75895024D01*
X185774366Y-75877781D01*
X185763330Y-75859368D01*
X185754151Y-75839962D01*
X185746919Y-75819750D01*
X185741703Y-75798926D01*
X185738553Y-75777691D01*
X185737500Y-75756250D01*
X185737500Y-75243750D01*
X185738553Y-75222309D01*
X185741703Y-75201074D01*
X185746919Y-75180250D01*
X185754151Y-75160038D01*
X185763330Y-75140632D01*
X185774366Y-75122219D01*
X185787154Y-75104976D01*
X185801570Y-75089070D01*
X185817476Y-75074654D01*
X185834719Y-75061866D01*
X185853132Y-75050830D01*
X185872538Y-75041651D01*
X185892750Y-75034419D01*
X185913574Y-75029203D01*
X185934809Y-75026053D01*
X185956250Y-75025000D01*
X186393750Y-75025000D01*
X186415191Y-75026053D01*
X186415191Y-75026053D01*
G37*
D13*
X186175000Y-75500000D03*
G04 #@! TD*
D11*
G04 #@! TO.C,R3*
G36*
X182613615Y-78711302D02*
X182634850Y-78714452D01*
X182655674Y-78719668D01*
X182675886Y-78726900D01*
X182695292Y-78736079D01*
X182713705Y-78747115D01*
X182730948Y-78759903D01*
X182746854Y-78774319D01*
X182761270Y-78790225D01*
X182774058Y-78807468D01*
X182785094Y-78825881D01*
X182794273Y-78845287D01*
X182801505Y-78865499D01*
X182806721Y-78886323D01*
X182809871Y-78907558D01*
X182810924Y-78928999D01*
X182810924Y-79441499D01*
X182809871Y-79462940D01*
X182806721Y-79484175D01*
X182801505Y-79504999D01*
X182794273Y-79525211D01*
X182785094Y-79544617D01*
X182774058Y-79563030D01*
X182761270Y-79580273D01*
X182746854Y-79596179D01*
X182730948Y-79610595D01*
X182713705Y-79623383D01*
X182695292Y-79634419D01*
X182675886Y-79643598D01*
X182655674Y-79650830D01*
X182634850Y-79656046D01*
X182613615Y-79659196D01*
X182592174Y-79660249D01*
X182154674Y-79660249D01*
X182133233Y-79659196D01*
X182111998Y-79656046D01*
X182091174Y-79650830D01*
X182070962Y-79643598D01*
X182051556Y-79634419D01*
X182033143Y-79623383D01*
X182015900Y-79610595D01*
X181999994Y-79596179D01*
X181985578Y-79580273D01*
X181972790Y-79563030D01*
X181961754Y-79544617D01*
X181952575Y-79525211D01*
X181945343Y-79504999D01*
X181940127Y-79484175D01*
X181936977Y-79462940D01*
X181935924Y-79441499D01*
X181935924Y-78928999D01*
X181936977Y-78907558D01*
X181940127Y-78886323D01*
X181945343Y-78865499D01*
X181952575Y-78845287D01*
X181961754Y-78825881D01*
X181972790Y-78807468D01*
X181985578Y-78790225D01*
X181999994Y-78774319D01*
X182015900Y-78759903D01*
X182033143Y-78747115D01*
X182051556Y-78736079D01*
X182070962Y-78726900D01*
X182091174Y-78719668D01*
X182111998Y-78714452D01*
X182133233Y-78711302D01*
X182154674Y-78710249D01*
X182592174Y-78710249D01*
X182613615Y-78711302D01*
X182613615Y-78711302D01*
G37*
D13*
X182373424Y-79185249D03*
D11*
G36*
X181038615Y-78711302D02*
X181059850Y-78714452D01*
X181080674Y-78719668D01*
X181100886Y-78726900D01*
X181120292Y-78736079D01*
X181138705Y-78747115D01*
X181155948Y-78759903D01*
X181171854Y-78774319D01*
X181186270Y-78790225D01*
X181199058Y-78807468D01*
X181210094Y-78825881D01*
X181219273Y-78845287D01*
X181226505Y-78865499D01*
X181231721Y-78886323D01*
X181234871Y-78907558D01*
X181235924Y-78928999D01*
X181235924Y-79441499D01*
X181234871Y-79462940D01*
X181231721Y-79484175D01*
X181226505Y-79504999D01*
X181219273Y-79525211D01*
X181210094Y-79544617D01*
X181199058Y-79563030D01*
X181186270Y-79580273D01*
X181171854Y-79596179D01*
X181155948Y-79610595D01*
X181138705Y-79623383D01*
X181120292Y-79634419D01*
X181100886Y-79643598D01*
X181080674Y-79650830D01*
X181059850Y-79656046D01*
X181038615Y-79659196D01*
X181017174Y-79660249D01*
X180579674Y-79660249D01*
X180558233Y-79659196D01*
X180536998Y-79656046D01*
X180516174Y-79650830D01*
X180495962Y-79643598D01*
X180476556Y-79634419D01*
X180458143Y-79623383D01*
X180440900Y-79610595D01*
X180424994Y-79596179D01*
X180410578Y-79580273D01*
X180397790Y-79563030D01*
X180386754Y-79544617D01*
X180377575Y-79525211D01*
X180370343Y-79504999D01*
X180365127Y-79484175D01*
X180361977Y-79462940D01*
X180360924Y-79441499D01*
X180360924Y-78928999D01*
X180361977Y-78907558D01*
X180365127Y-78886323D01*
X180370343Y-78865499D01*
X180377575Y-78845287D01*
X180386754Y-78825881D01*
X180397790Y-78807468D01*
X180410578Y-78790225D01*
X180424994Y-78774319D01*
X180440900Y-78759903D01*
X180458143Y-78747115D01*
X180476556Y-78736079D01*
X180495962Y-78726900D01*
X180516174Y-78719668D01*
X180536998Y-78714452D01*
X180558233Y-78711302D01*
X180579674Y-78710249D01*
X181017174Y-78710249D01*
X181038615Y-78711302D01*
X181038615Y-78711302D01*
G37*
D13*
X180798424Y-79185249D03*
G04 #@! TD*
D11*
G04 #@! TO.C,R4*
G36*
X184815191Y-73526053D02*
X184836426Y-73529203D01*
X184857250Y-73534419D01*
X184877462Y-73541651D01*
X184896868Y-73550830D01*
X184915281Y-73561866D01*
X184932524Y-73574654D01*
X184948430Y-73589070D01*
X184962846Y-73604976D01*
X184975634Y-73622219D01*
X184986670Y-73640632D01*
X184995849Y-73660038D01*
X185003081Y-73680250D01*
X185008297Y-73701074D01*
X185011447Y-73722309D01*
X185012500Y-73743750D01*
X185012500Y-74256250D01*
X185011447Y-74277691D01*
X185008297Y-74298926D01*
X185003081Y-74319750D01*
X184995849Y-74339962D01*
X184986670Y-74359368D01*
X184975634Y-74377781D01*
X184962846Y-74395024D01*
X184948430Y-74410930D01*
X184932524Y-74425346D01*
X184915281Y-74438134D01*
X184896868Y-74449170D01*
X184877462Y-74458349D01*
X184857250Y-74465581D01*
X184836426Y-74470797D01*
X184815191Y-74473947D01*
X184793750Y-74475000D01*
X184356250Y-74475000D01*
X184334809Y-74473947D01*
X184313574Y-74470797D01*
X184292750Y-74465581D01*
X184272538Y-74458349D01*
X184253132Y-74449170D01*
X184234719Y-74438134D01*
X184217476Y-74425346D01*
X184201570Y-74410930D01*
X184187154Y-74395024D01*
X184174366Y-74377781D01*
X184163330Y-74359368D01*
X184154151Y-74339962D01*
X184146919Y-74319750D01*
X184141703Y-74298926D01*
X184138553Y-74277691D01*
X184137500Y-74256250D01*
X184137500Y-73743750D01*
X184138553Y-73722309D01*
X184141703Y-73701074D01*
X184146919Y-73680250D01*
X184154151Y-73660038D01*
X184163330Y-73640632D01*
X184174366Y-73622219D01*
X184187154Y-73604976D01*
X184201570Y-73589070D01*
X184217476Y-73574654D01*
X184234719Y-73561866D01*
X184253132Y-73550830D01*
X184272538Y-73541651D01*
X184292750Y-73534419D01*
X184313574Y-73529203D01*
X184334809Y-73526053D01*
X184356250Y-73525000D01*
X184793750Y-73525000D01*
X184815191Y-73526053D01*
X184815191Y-73526053D01*
G37*
D13*
X184575000Y-74000000D03*
D11*
G36*
X186390191Y-73526053D02*
X186411426Y-73529203D01*
X186432250Y-73534419D01*
X186452462Y-73541651D01*
X186471868Y-73550830D01*
X186490281Y-73561866D01*
X186507524Y-73574654D01*
X186523430Y-73589070D01*
X186537846Y-73604976D01*
X186550634Y-73622219D01*
X186561670Y-73640632D01*
X186570849Y-73660038D01*
X186578081Y-73680250D01*
X186583297Y-73701074D01*
X186586447Y-73722309D01*
X186587500Y-73743750D01*
X186587500Y-74256250D01*
X186586447Y-74277691D01*
X186583297Y-74298926D01*
X186578081Y-74319750D01*
X186570849Y-74339962D01*
X186561670Y-74359368D01*
X186550634Y-74377781D01*
X186537846Y-74395024D01*
X186523430Y-74410930D01*
X186507524Y-74425346D01*
X186490281Y-74438134D01*
X186471868Y-74449170D01*
X186452462Y-74458349D01*
X186432250Y-74465581D01*
X186411426Y-74470797D01*
X186390191Y-74473947D01*
X186368750Y-74475000D01*
X185931250Y-74475000D01*
X185909809Y-74473947D01*
X185888574Y-74470797D01*
X185867750Y-74465581D01*
X185847538Y-74458349D01*
X185828132Y-74449170D01*
X185809719Y-74438134D01*
X185792476Y-74425346D01*
X185776570Y-74410930D01*
X185762154Y-74395024D01*
X185749366Y-74377781D01*
X185738330Y-74359368D01*
X185729151Y-74339962D01*
X185721919Y-74319750D01*
X185716703Y-74298926D01*
X185713553Y-74277691D01*
X185712500Y-74256250D01*
X185712500Y-73743750D01*
X185713553Y-73722309D01*
X185716703Y-73701074D01*
X185721919Y-73680250D01*
X185729151Y-73660038D01*
X185738330Y-73640632D01*
X185749366Y-73622219D01*
X185762154Y-73604976D01*
X185776570Y-73589070D01*
X185792476Y-73574654D01*
X185809719Y-73561866D01*
X185828132Y-73550830D01*
X185847538Y-73541651D01*
X185867750Y-73534419D01*
X185888574Y-73529203D01*
X185909809Y-73526053D01*
X185931250Y-73525000D01*
X186368750Y-73525000D01*
X186390191Y-73526053D01*
X186390191Y-73526053D01*
G37*
D13*
X186150000Y-74000000D03*
G04 #@! TD*
D11*
G04 #@! TO.C,R5*
G36*
X145577691Y-74263553D02*
X145598926Y-74266703D01*
X145619750Y-74271919D01*
X145639962Y-74279151D01*
X145659368Y-74288330D01*
X145677781Y-74299366D01*
X145695024Y-74312154D01*
X145710930Y-74326570D01*
X145725346Y-74342476D01*
X145738134Y-74359719D01*
X145749170Y-74378132D01*
X145758349Y-74397538D01*
X145765581Y-74417750D01*
X145770797Y-74438574D01*
X145773947Y-74459809D01*
X145775000Y-74481250D01*
X145775000Y-74918750D01*
X145773947Y-74940191D01*
X145770797Y-74961426D01*
X145765581Y-74982250D01*
X145758349Y-75002462D01*
X145749170Y-75021868D01*
X145738134Y-75040281D01*
X145725346Y-75057524D01*
X145710930Y-75073430D01*
X145695024Y-75087846D01*
X145677781Y-75100634D01*
X145659368Y-75111670D01*
X145639962Y-75120849D01*
X145619750Y-75128081D01*
X145598926Y-75133297D01*
X145577691Y-75136447D01*
X145556250Y-75137500D01*
X145043750Y-75137500D01*
X145022309Y-75136447D01*
X145001074Y-75133297D01*
X144980250Y-75128081D01*
X144960038Y-75120849D01*
X144940632Y-75111670D01*
X144922219Y-75100634D01*
X144904976Y-75087846D01*
X144889070Y-75073430D01*
X144874654Y-75057524D01*
X144861866Y-75040281D01*
X144850830Y-75021868D01*
X144841651Y-75002462D01*
X144834419Y-74982250D01*
X144829203Y-74961426D01*
X144826053Y-74940191D01*
X144825000Y-74918750D01*
X144825000Y-74481250D01*
X144826053Y-74459809D01*
X144829203Y-74438574D01*
X144834419Y-74417750D01*
X144841651Y-74397538D01*
X144850830Y-74378132D01*
X144861866Y-74359719D01*
X144874654Y-74342476D01*
X144889070Y-74326570D01*
X144904976Y-74312154D01*
X144922219Y-74299366D01*
X144940632Y-74288330D01*
X144960038Y-74279151D01*
X144980250Y-74271919D01*
X145001074Y-74266703D01*
X145022309Y-74263553D01*
X145043750Y-74262500D01*
X145556250Y-74262500D01*
X145577691Y-74263553D01*
X145577691Y-74263553D01*
G37*
D13*
X145300000Y-74700000D03*
D11*
G36*
X145577691Y-75838553D02*
X145598926Y-75841703D01*
X145619750Y-75846919D01*
X145639962Y-75854151D01*
X145659368Y-75863330D01*
X145677781Y-75874366D01*
X145695024Y-75887154D01*
X145710930Y-75901570D01*
X145725346Y-75917476D01*
X145738134Y-75934719D01*
X145749170Y-75953132D01*
X145758349Y-75972538D01*
X145765581Y-75992750D01*
X145770797Y-76013574D01*
X145773947Y-76034809D01*
X145775000Y-76056250D01*
X145775000Y-76493750D01*
X145773947Y-76515191D01*
X145770797Y-76536426D01*
X145765581Y-76557250D01*
X145758349Y-76577462D01*
X145749170Y-76596868D01*
X145738134Y-76615281D01*
X145725346Y-76632524D01*
X145710930Y-76648430D01*
X145695024Y-76662846D01*
X145677781Y-76675634D01*
X145659368Y-76686670D01*
X145639962Y-76695849D01*
X145619750Y-76703081D01*
X145598926Y-76708297D01*
X145577691Y-76711447D01*
X145556250Y-76712500D01*
X145043750Y-76712500D01*
X145022309Y-76711447D01*
X145001074Y-76708297D01*
X144980250Y-76703081D01*
X144960038Y-76695849D01*
X144940632Y-76686670D01*
X144922219Y-76675634D01*
X144904976Y-76662846D01*
X144889070Y-76648430D01*
X144874654Y-76632524D01*
X144861866Y-76615281D01*
X144850830Y-76596868D01*
X144841651Y-76577462D01*
X144834419Y-76557250D01*
X144829203Y-76536426D01*
X144826053Y-76515191D01*
X144825000Y-76493750D01*
X144825000Y-76056250D01*
X144826053Y-76034809D01*
X144829203Y-76013574D01*
X144834419Y-75992750D01*
X144841651Y-75972538D01*
X144850830Y-75953132D01*
X144861866Y-75934719D01*
X144874654Y-75917476D01*
X144889070Y-75901570D01*
X144904976Y-75887154D01*
X144922219Y-75874366D01*
X144940632Y-75863330D01*
X144960038Y-75854151D01*
X144980250Y-75846919D01*
X145001074Y-75841703D01*
X145022309Y-75838553D01*
X145043750Y-75837500D01*
X145556250Y-75837500D01*
X145577691Y-75838553D01*
X145577691Y-75838553D01*
G37*
D13*
X145300000Y-76275000D03*
G04 #@! TD*
D11*
G04 #@! TO.C,R6*
G36*
X145527691Y-81176053D02*
X145548926Y-81179203D01*
X145569750Y-81184419D01*
X145589962Y-81191651D01*
X145609368Y-81200830D01*
X145627781Y-81211866D01*
X145645024Y-81224654D01*
X145660930Y-81239070D01*
X145675346Y-81254976D01*
X145688134Y-81272219D01*
X145699170Y-81290632D01*
X145708349Y-81310038D01*
X145715581Y-81330250D01*
X145720797Y-81351074D01*
X145723947Y-81372309D01*
X145725000Y-81393750D01*
X145725000Y-81831250D01*
X145723947Y-81852691D01*
X145720797Y-81873926D01*
X145715581Y-81894750D01*
X145708349Y-81914962D01*
X145699170Y-81934368D01*
X145688134Y-81952781D01*
X145675346Y-81970024D01*
X145660930Y-81985930D01*
X145645024Y-82000346D01*
X145627781Y-82013134D01*
X145609368Y-82024170D01*
X145589962Y-82033349D01*
X145569750Y-82040581D01*
X145548926Y-82045797D01*
X145527691Y-82048947D01*
X145506250Y-82050000D01*
X144993750Y-82050000D01*
X144972309Y-82048947D01*
X144951074Y-82045797D01*
X144930250Y-82040581D01*
X144910038Y-82033349D01*
X144890632Y-82024170D01*
X144872219Y-82013134D01*
X144854976Y-82000346D01*
X144839070Y-81985930D01*
X144824654Y-81970024D01*
X144811866Y-81952781D01*
X144800830Y-81934368D01*
X144791651Y-81914962D01*
X144784419Y-81894750D01*
X144779203Y-81873926D01*
X144776053Y-81852691D01*
X144775000Y-81831250D01*
X144775000Y-81393750D01*
X144776053Y-81372309D01*
X144779203Y-81351074D01*
X144784419Y-81330250D01*
X144791651Y-81310038D01*
X144800830Y-81290632D01*
X144811866Y-81272219D01*
X144824654Y-81254976D01*
X144839070Y-81239070D01*
X144854976Y-81224654D01*
X144872219Y-81211866D01*
X144890632Y-81200830D01*
X144910038Y-81191651D01*
X144930250Y-81184419D01*
X144951074Y-81179203D01*
X144972309Y-81176053D01*
X144993750Y-81175000D01*
X145506250Y-81175000D01*
X145527691Y-81176053D01*
X145527691Y-81176053D01*
G37*
D13*
X145250000Y-81612500D03*
D11*
G36*
X145527691Y-82751053D02*
X145548926Y-82754203D01*
X145569750Y-82759419D01*
X145589962Y-82766651D01*
X145609368Y-82775830D01*
X145627781Y-82786866D01*
X145645024Y-82799654D01*
X145660930Y-82814070D01*
X145675346Y-82829976D01*
X145688134Y-82847219D01*
X145699170Y-82865632D01*
X145708349Y-82885038D01*
X145715581Y-82905250D01*
X145720797Y-82926074D01*
X145723947Y-82947309D01*
X145725000Y-82968750D01*
X145725000Y-83406250D01*
X145723947Y-83427691D01*
X145720797Y-83448926D01*
X145715581Y-83469750D01*
X145708349Y-83489962D01*
X145699170Y-83509368D01*
X145688134Y-83527781D01*
X145675346Y-83545024D01*
X145660930Y-83560930D01*
X145645024Y-83575346D01*
X145627781Y-83588134D01*
X145609368Y-83599170D01*
X145589962Y-83608349D01*
X145569750Y-83615581D01*
X145548926Y-83620797D01*
X145527691Y-83623947D01*
X145506250Y-83625000D01*
X144993750Y-83625000D01*
X144972309Y-83623947D01*
X144951074Y-83620797D01*
X144930250Y-83615581D01*
X144910038Y-83608349D01*
X144890632Y-83599170D01*
X144872219Y-83588134D01*
X144854976Y-83575346D01*
X144839070Y-83560930D01*
X144824654Y-83545024D01*
X144811866Y-83527781D01*
X144800830Y-83509368D01*
X144791651Y-83489962D01*
X144784419Y-83469750D01*
X144779203Y-83448926D01*
X144776053Y-83427691D01*
X144775000Y-83406250D01*
X144775000Y-82968750D01*
X144776053Y-82947309D01*
X144779203Y-82926074D01*
X144784419Y-82905250D01*
X144791651Y-82885038D01*
X144800830Y-82865632D01*
X144811866Y-82847219D01*
X144824654Y-82829976D01*
X144839070Y-82814070D01*
X144854976Y-82799654D01*
X144872219Y-82786866D01*
X144890632Y-82775830D01*
X144910038Y-82766651D01*
X144930250Y-82759419D01*
X144951074Y-82754203D01*
X144972309Y-82751053D01*
X144993750Y-82750000D01*
X145506250Y-82750000D01*
X145527691Y-82751053D01*
X145527691Y-82751053D01*
G37*
D13*
X145250000Y-83187500D03*
G04 #@! TD*
D11*
G04 #@! TO.C,R7*
G36*
X149952691Y-64826053D02*
X149973926Y-64829203D01*
X149994750Y-64834419D01*
X150014962Y-64841651D01*
X150034368Y-64850830D01*
X150052781Y-64861866D01*
X150070024Y-64874654D01*
X150085930Y-64889070D01*
X150100346Y-64904976D01*
X150113134Y-64922219D01*
X150124170Y-64940632D01*
X150133349Y-64960038D01*
X150140581Y-64980250D01*
X150145797Y-65001074D01*
X150148947Y-65022309D01*
X150150000Y-65043750D01*
X150150000Y-65556250D01*
X150148947Y-65577691D01*
X150145797Y-65598926D01*
X150140581Y-65619750D01*
X150133349Y-65639962D01*
X150124170Y-65659368D01*
X150113134Y-65677781D01*
X150100346Y-65695024D01*
X150085930Y-65710930D01*
X150070024Y-65725346D01*
X150052781Y-65738134D01*
X150034368Y-65749170D01*
X150014962Y-65758349D01*
X149994750Y-65765581D01*
X149973926Y-65770797D01*
X149952691Y-65773947D01*
X149931250Y-65775000D01*
X149493750Y-65775000D01*
X149472309Y-65773947D01*
X149451074Y-65770797D01*
X149430250Y-65765581D01*
X149410038Y-65758349D01*
X149390632Y-65749170D01*
X149372219Y-65738134D01*
X149354976Y-65725346D01*
X149339070Y-65710930D01*
X149324654Y-65695024D01*
X149311866Y-65677781D01*
X149300830Y-65659368D01*
X149291651Y-65639962D01*
X149284419Y-65619750D01*
X149279203Y-65598926D01*
X149276053Y-65577691D01*
X149275000Y-65556250D01*
X149275000Y-65043750D01*
X149276053Y-65022309D01*
X149279203Y-65001074D01*
X149284419Y-64980250D01*
X149291651Y-64960038D01*
X149300830Y-64940632D01*
X149311866Y-64922219D01*
X149324654Y-64904976D01*
X149339070Y-64889070D01*
X149354976Y-64874654D01*
X149372219Y-64861866D01*
X149390632Y-64850830D01*
X149410038Y-64841651D01*
X149430250Y-64834419D01*
X149451074Y-64829203D01*
X149472309Y-64826053D01*
X149493750Y-64825000D01*
X149931250Y-64825000D01*
X149952691Y-64826053D01*
X149952691Y-64826053D01*
G37*
D13*
X149712500Y-65300000D03*
D11*
G36*
X151527691Y-64826053D02*
X151548926Y-64829203D01*
X151569750Y-64834419D01*
X151589962Y-64841651D01*
X151609368Y-64850830D01*
X151627781Y-64861866D01*
X151645024Y-64874654D01*
X151660930Y-64889070D01*
X151675346Y-64904976D01*
X151688134Y-64922219D01*
X151699170Y-64940632D01*
X151708349Y-64960038D01*
X151715581Y-64980250D01*
X151720797Y-65001074D01*
X151723947Y-65022309D01*
X151725000Y-65043750D01*
X151725000Y-65556250D01*
X151723947Y-65577691D01*
X151720797Y-65598926D01*
X151715581Y-65619750D01*
X151708349Y-65639962D01*
X151699170Y-65659368D01*
X151688134Y-65677781D01*
X151675346Y-65695024D01*
X151660930Y-65710930D01*
X151645024Y-65725346D01*
X151627781Y-65738134D01*
X151609368Y-65749170D01*
X151589962Y-65758349D01*
X151569750Y-65765581D01*
X151548926Y-65770797D01*
X151527691Y-65773947D01*
X151506250Y-65775000D01*
X151068750Y-65775000D01*
X151047309Y-65773947D01*
X151026074Y-65770797D01*
X151005250Y-65765581D01*
X150985038Y-65758349D01*
X150965632Y-65749170D01*
X150947219Y-65738134D01*
X150929976Y-65725346D01*
X150914070Y-65710930D01*
X150899654Y-65695024D01*
X150886866Y-65677781D01*
X150875830Y-65659368D01*
X150866651Y-65639962D01*
X150859419Y-65619750D01*
X150854203Y-65598926D01*
X150851053Y-65577691D01*
X150850000Y-65556250D01*
X150850000Y-65043750D01*
X150851053Y-65022309D01*
X150854203Y-65001074D01*
X150859419Y-64980250D01*
X150866651Y-64960038D01*
X150875830Y-64940632D01*
X150886866Y-64922219D01*
X150899654Y-64904976D01*
X150914070Y-64889070D01*
X150929976Y-64874654D01*
X150947219Y-64861866D01*
X150965632Y-64850830D01*
X150985038Y-64841651D01*
X151005250Y-64834419D01*
X151026074Y-64829203D01*
X151047309Y-64826053D01*
X151068750Y-64825000D01*
X151506250Y-64825000D01*
X151527691Y-64826053D01*
X151527691Y-64826053D01*
G37*
D13*
X151287500Y-65300000D03*
G04 #@! TD*
D11*
G04 #@! TO.C,R8*
G36*
X160377691Y-69263553D02*
X160398926Y-69266703D01*
X160419750Y-69271919D01*
X160439962Y-69279151D01*
X160459368Y-69288330D01*
X160477781Y-69299366D01*
X160495024Y-69312154D01*
X160510930Y-69326570D01*
X160525346Y-69342476D01*
X160538134Y-69359719D01*
X160549170Y-69378132D01*
X160558349Y-69397538D01*
X160565581Y-69417750D01*
X160570797Y-69438574D01*
X160573947Y-69459809D01*
X160575000Y-69481250D01*
X160575000Y-69918750D01*
X160573947Y-69940191D01*
X160570797Y-69961426D01*
X160565581Y-69982250D01*
X160558349Y-70002462D01*
X160549170Y-70021868D01*
X160538134Y-70040281D01*
X160525346Y-70057524D01*
X160510930Y-70073430D01*
X160495024Y-70087846D01*
X160477781Y-70100634D01*
X160459368Y-70111670D01*
X160439962Y-70120849D01*
X160419750Y-70128081D01*
X160398926Y-70133297D01*
X160377691Y-70136447D01*
X160356250Y-70137500D01*
X159843750Y-70137500D01*
X159822309Y-70136447D01*
X159801074Y-70133297D01*
X159780250Y-70128081D01*
X159760038Y-70120849D01*
X159740632Y-70111670D01*
X159722219Y-70100634D01*
X159704976Y-70087846D01*
X159689070Y-70073430D01*
X159674654Y-70057524D01*
X159661866Y-70040281D01*
X159650830Y-70021868D01*
X159641651Y-70002462D01*
X159634419Y-69982250D01*
X159629203Y-69961426D01*
X159626053Y-69940191D01*
X159625000Y-69918750D01*
X159625000Y-69481250D01*
X159626053Y-69459809D01*
X159629203Y-69438574D01*
X159634419Y-69417750D01*
X159641651Y-69397538D01*
X159650830Y-69378132D01*
X159661866Y-69359719D01*
X159674654Y-69342476D01*
X159689070Y-69326570D01*
X159704976Y-69312154D01*
X159722219Y-69299366D01*
X159740632Y-69288330D01*
X159760038Y-69279151D01*
X159780250Y-69271919D01*
X159801074Y-69266703D01*
X159822309Y-69263553D01*
X159843750Y-69262500D01*
X160356250Y-69262500D01*
X160377691Y-69263553D01*
X160377691Y-69263553D01*
G37*
D13*
X160100000Y-69700000D03*
D11*
G36*
X160377691Y-67688553D02*
X160398926Y-67691703D01*
X160419750Y-67696919D01*
X160439962Y-67704151D01*
X160459368Y-67713330D01*
X160477781Y-67724366D01*
X160495024Y-67737154D01*
X160510930Y-67751570D01*
X160525346Y-67767476D01*
X160538134Y-67784719D01*
X160549170Y-67803132D01*
X160558349Y-67822538D01*
X160565581Y-67842750D01*
X160570797Y-67863574D01*
X160573947Y-67884809D01*
X160575000Y-67906250D01*
X160575000Y-68343750D01*
X160573947Y-68365191D01*
X160570797Y-68386426D01*
X160565581Y-68407250D01*
X160558349Y-68427462D01*
X160549170Y-68446868D01*
X160538134Y-68465281D01*
X160525346Y-68482524D01*
X160510930Y-68498430D01*
X160495024Y-68512846D01*
X160477781Y-68525634D01*
X160459368Y-68536670D01*
X160439962Y-68545849D01*
X160419750Y-68553081D01*
X160398926Y-68558297D01*
X160377691Y-68561447D01*
X160356250Y-68562500D01*
X159843750Y-68562500D01*
X159822309Y-68561447D01*
X159801074Y-68558297D01*
X159780250Y-68553081D01*
X159760038Y-68545849D01*
X159740632Y-68536670D01*
X159722219Y-68525634D01*
X159704976Y-68512846D01*
X159689070Y-68498430D01*
X159674654Y-68482524D01*
X159661866Y-68465281D01*
X159650830Y-68446868D01*
X159641651Y-68427462D01*
X159634419Y-68407250D01*
X159629203Y-68386426D01*
X159626053Y-68365191D01*
X159625000Y-68343750D01*
X159625000Y-67906250D01*
X159626053Y-67884809D01*
X159629203Y-67863574D01*
X159634419Y-67842750D01*
X159641651Y-67822538D01*
X159650830Y-67803132D01*
X159661866Y-67784719D01*
X159674654Y-67767476D01*
X159689070Y-67751570D01*
X159704976Y-67737154D01*
X159722219Y-67724366D01*
X159740632Y-67713330D01*
X159760038Y-67704151D01*
X159780250Y-67696919D01*
X159801074Y-67691703D01*
X159822309Y-67688553D01*
X159843750Y-67687500D01*
X160356250Y-67687500D01*
X160377691Y-67688553D01*
X160377691Y-67688553D01*
G37*
D13*
X160100000Y-68125000D03*
G04 #@! TD*
D11*
G04 #@! TO.C,R1*
G36*
X182613615Y-80211302D02*
X182634850Y-80214452D01*
X182655674Y-80219668D01*
X182675886Y-80226900D01*
X182695292Y-80236079D01*
X182713705Y-80247115D01*
X182730948Y-80259903D01*
X182746854Y-80274319D01*
X182761270Y-80290225D01*
X182774058Y-80307468D01*
X182785094Y-80325881D01*
X182794273Y-80345287D01*
X182801505Y-80365499D01*
X182806721Y-80386323D01*
X182809871Y-80407558D01*
X182810924Y-80428999D01*
X182810924Y-80941499D01*
X182809871Y-80962940D01*
X182806721Y-80984175D01*
X182801505Y-81004999D01*
X182794273Y-81025211D01*
X182785094Y-81044617D01*
X182774058Y-81063030D01*
X182761270Y-81080273D01*
X182746854Y-81096179D01*
X182730948Y-81110595D01*
X182713705Y-81123383D01*
X182695292Y-81134419D01*
X182675886Y-81143598D01*
X182655674Y-81150830D01*
X182634850Y-81156046D01*
X182613615Y-81159196D01*
X182592174Y-81160249D01*
X182154674Y-81160249D01*
X182133233Y-81159196D01*
X182111998Y-81156046D01*
X182091174Y-81150830D01*
X182070962Y-81143598D01*
X182051556Y-81134419D01*
X182033143Y-81123383D01*
X182015900Y-81110595D01*
X181999994Y-81096179D01*
X181985578Y-81080273D01*
X181972790Y-81063030D01*
X181961754Y-81044617D01*
X181952575Y-81025211D01*
X181945343Y-81004999D01*
X181940127Y-80984175D01*
X181936977Y-80962940D01*
X181935924Y-80941499D01*
X181935924Y-80428999D01*
X181936977Y-80407558D01*
X181940127Y-80386323D01*
X181945343Y-80365499D01*
X181952575Y-80345287D01*
X181961754Y-80325881D01*
X181972790Y-80307468D01*
X181985578Y-80290225D01*
X181999994Y-80274319D01*
X182015900Y-80259903D01*
X182033143Y-80247115D01*
X182051556Y-80236079D01*
X182070962Y-80226900D01*
X182091174Y-80219668D01*
X182111998Y-80214452D01*
X182133233Y-80211302D01*
X182154674Y-80210249D01*
X182592174Y-80210249D01*
X182613615Y-80211302D01*
X182613615Y-80211302D01*
G37*
D13*
X182373424Y-80685249D03*
D11*
G36*
X181038615Y-80211302D02*
X181059850Y-80214452D01*
X181080674Y-80219668D01*
X181100886Y-80226900D01*
X181120292Y-80236079D01*
X181138705Y-80247115D01*
X181155948Y-80259903D01*
X181171854Y-80274319D01*
X181186270Y-80290225D01*
X181199058Y-80307468D01*
X181210094Y-80325881D01*
X181219273Y-80345287D01*
X181226505Y-80365499D01*
X181231721Y-80386323D01*
X181234871Y-80407558D01*
X181235924Y-80428999D01*
X181235924Y-80941499D01*
X181234871Y-80962940D01*
X181231721Y-80984175D01*
X181226505Y-81004999D01*
X181219273Y-81025211D01*
X181210094Y-81044617D01*
X181199058Y-81063030D01*
X181186270Y-81080273D01*
X181171854Y-81096179D01*
X181155948Y-81110595D01*
X181138705Y-81123383D01*
X181120292Y-81134419D01*
X181100886Y-81143598D01*
X181080674Y-81150830D01*
X181059850Y-81156046D01*
X181038615Y-81159196D01*
X181017174Y-81160249D01*
X180579674Y-81160249D01*
X180558233Y-81159196D01*
X180536998Y-81156046D01*
X180516174Y-81150830D01*
X180495962Y-81143598D01*
X180476556Y-81134419D01*
X180458143Y-81123383D01*
X180440900Y-81110595D01*
X180424994Y-81096179D01*
X180410578Y-81080273D01*
X180397790Y-81063030D01*
X180386754Y-81044617D01*
X180377575Y-81025211D01*
X180370343Y-81004999D01*
X180365127Y-80984175D01*
X180361977Y-80962940D01*
X180360924Y-80941499D01*
X180360924Y-80428999D01*
X180361977Y-80407558D01*
X180365127Y-80386323D01*
X180370343Y-80365499D01*
X180377575Y-80345287D01*
X180386754Y-80325881D01*
X180397790Y-80307468D01*
X180410578Y-80290225D01*
X180424994Y-80274319D01*
X180440900Y-80259903D01*
X180458143Y-80247115D01*
X180476556Y-80236079D01*
X180495962Y-80226900D01*
X180516174Y-80219668D01*
X180536998Y-80214452D01*
X180558233Y-80211302D01*
X180579674Y-80210249D01*
X181017174Y-80210249D01*
X181038615Y-80211302D01*
X181038615Y-80211302D01*
G37*
D13*
X180798424Y-80685249D03*
G04 #@! TD*
D20*
G04 #@! TO.C,SW1*
X137600000Y-56200000D03*
X137600000Y-60350000D03*
X135450000Y-60350000D03*
X135450000Y-56200000D03*
G04 #@! TD*
M02*
