M48
;DRILL file {KiCad 5.0.2-bee76a0~70~ubuntu18.04.1} date Do 08 Aug 2019 23:38:51 CEST
;FORMAT={-:-/ absolute / inch / decimal}
FMAT,2
INCH,TZ
T1C0.0157
T2C0.0315
T3C0.0354
T4C0.0394
T5C0.0512
T6C0.1260
%
G90
G05
T1
X5.002Y-1.6161
X5.0394Y-3.9272
X5.0433Y-4.2657
X5.2067Y-2.4685
X5.3031Y-2.3898
X5.3386Y-1.9016
X5.3799Y-4.2795
X5.3898Y-3.061
X5.3917Y-3.5315
X5.4075Y-2.6201
X5.5906Y-1.6516
X5.7126Y-1.9154
X5.7821Y-3.9195
X5.8898Y-4.2657
X6.0079Y-2.6339
X6.0157Y-3.5551
X6.0177Y-3.0925
X6.1201Y-1.9528
X6.2047Y-2.3091
X6.2047Y-3.063
X6.2559Y-2.6339
X6.2717Y-2.5827
X6.2992Y-1.6437
X6.3642Y-4.25
X6.4311Y-3.8819
X6.4449Y-2.8661
X6.4744Y-3.4843
X6.6102Y-2.4311
X6.6161Y-1.9744
X6.6594Y-3.437
X6.687Y-3.5591
X6.7244Y-2.6713
X6.752Y-3.2776
X6.7972Y-3.0098
X6.8386Y-3.6339
X6.8858Y-2.4016
X6.8976Y-3.6929
X6.9016Y-3.0748
X6.9232Y-3.7618
X6.9862Y-3.2382
X6.9961Y-2.0098
X7.0177Y-1.6201
X7.0669Y-3.185
X7.1339Y-2.7697
X7.2087Y-2.9764
X7.2264Y-3.7894
X7.2402Y-2.563
X7.5709Y-1.624
X7.6634Y-2.5315
X7.6634Y-3.687
X7.6654Y-3.063
X7.6673Y-2.0295
T2
X5.9402Y-2.9094
X6.2402Y-2.9094
X7.0189Y-3.3268
X7.3189Y-3.3268
T3
X5.5417Y-3.2756
X5.6417Y-3.2756
X5.5433Y-2.9409
X5.6433Y-2.9409
T4
X7.2874Y-3.0969
X7.2874Y-3.1969
X5.6535Y-4.0197
X5.7081Y-4.1315
X5.7626Y-4.0197
X5.8171Y-4.1315
X5.8717Y-4.0197
X5.9262Y-4.1315
X5.9807Y-4.0197
X6.0352Y-4.1315
X6.0898Y-4.0197
X5.039Y-1.826
X5.039Y-1.926
X5.039Y-2.026
X5.039Y-2.126
X5.039Y-2.226
X5.039Y-2.326
X5.039Y-2.426
X5.039Y-2.526
X5.039Y-2.626
X5.039Y-2.726
X5.039Y-2.826
X5.039Y-2.926
X5.039Y-3.026
X5.039Y-3.126
X5.039Y-3.226
X5.039Y-3.326
X5.039Y-3.426
X5.039Y-3.526
X5.039Y-3.626
X5.139Y-1.826
X5.139Y-1.926
X5.139Y-2.026
X5.139Y-2.126
X5.139Y-2.226
X5.139Y-2.326
X5.139Y-2.426
X5.139Y-2.526
X5.139Y-2.626
X5.139Y-2.726
X5.139Y-2.826
X5.139Y-2.926
X5.139Y-3.026
X5.139Y-3.126
X5.139Y-3.226
X5.139Y-3.326
X5.139Y-3.426
X5.139Y-3.526
X5.139Y-3.626
X5.689Y-2.111
X5.689Y-2.211
X5.689Y-2.311
X7.439Y-1.826
X7.439Y-1.926
X7.439Y-2.026
X7.439Y-2.126
X7.439Y-2.226
X7.439Y-2.326
X7.439Y-2.426
X7.439Y-2.526
X7.439Y-2.626
X7.439Y-2.726
X7.439Y-2.826
X7.439Y-2.926
X7.439Y-3.026
X7.439Y-3.126
X7.439Y-3.226
X7.439Y-3.326
X7.439Y-3.426
X7.439Y-3.526
X7.439Y-3.626
X7.539Y-1.826
X7.539Y-1.926
X7.539Y-2.026
X7.539Y-2.126
X7.539Y-2.226
X7.539Y-2.326
X7.539Y-2.426
X7.539Y-2.526
X7.539Y-2.626
X7.539Y-2.726
X7.539Y-2.826
X7.539Y-2.926
X7.539Y-3.026
X7.539Y-3.126
X7.539Y-3.226
X7.539Y-3.326
X7.539Y-3.426
X7.539Y-3.526
X7.539Y-3.626
T5
X6.622Y-4.1063
X6.8189Y-4.1063
X7.0157Y-4.1063
X7.2126Y-4.1063
X7.4094Y-4.1063
X7.6063Y-4.1063
T6
X5.3795Y-4.0756
X6.3638Y-4.0756
T0
M30
